<mxfile host="65bd71144e">
    <diagram id="2y67GwJ-e74gMJGwZ_nx" name="第 1 页">
        <mxGraphModel dx="909" dy="720" grid="1" gridSize="10" guides="1" tooltips="1" connect="1" arrows="1" fold="1" page="1" pageScale="1" pageWidth="827" pageHeight="1169" math="0" shadow="0">
            <root>
                <mxCell id="0"/>
                <mxCell id="1" parent="0"/>
                <mxCell id="2" value="&lt;div style=&quot;text-align: left;&quot;&gt;&lt;span style=&quot;font-size: 24px;&quot;&gt;&amp;nbsp; &amp;nbsp; 1、v-model本质是一个语法糖，它将`value`属性和`input`事件绑定在一起，实现双向数据绑定。&lt;/span&gt;&lt;/div&gt;&lt;div style=&quot;text-align: left;&quot;&gt;&lt;span style=&quot;font-size: 24px;&quot;&gt;&amp;nbsp; &amp;nbsp; 2、当使用`v-model`指令时，Vue会自动生成一个`value`属性和一个`input`事件监听器。当用户输入时，`input`事件就会触发，然后将输入的值赋值给`value`属性，然后`value`属性的变化响应式地更新到数据模型中。&lt;/span&gt;&lt;/div&gt;&lt;div style=&quot;text-align: left;&quot;&gt;&lt;span style=&quot;font-size: 24px;&quot;&gt;&amp;nbsp; &amp;nbsp; 反之，当数据模型中的数据变化时，`value`属性也会相应地更新，这样就实现了双向数据绑定。&lt;/span&gt;&lt;/div&gt;" style="text;strokeColor=none;align=center;fillColor=none;html=1;verticalAlign=middle;whiteSpace=wrap;rounded=0;fontSize=14;fontColor=#FF3333;labelBackgroundColor=#FFFF00;" parent="1" vertex="1">
                    <mxGeometry x="1010" y="370" width="546" height="260" as="geometry"/>
                </mxCell>
                <mxCell id="4" value="" style="shape=image;verticalLabelPosition=bottom;labelBackgroundColor=default;verticalAlign=top;aspect=fixed;imageAspect=0;image=data:image/png,iVBORw0KGgoAAAANSUhEUgAAA4kAAAM2CAYAAABbssb1AAAAAXNSR0IArs4c6QAAAARnQU1BAACxjwv8YQUAAAAJcEhZcwAADsMAAA7DAcdvqGQAANLcSURBVHhe7P1tzC3Zed53EkLywXkxYsCJMUCAwAackRRHsGzZnrzHhDGJMzMIjEnyIRAJDxBoELelkURBMgVHFglqJBEQKTLWUIobpIYiKRNtmWKHQ6LFlilimoQYqUm05IZMcRrmgAQhTFMYqQciQPSHPX3t01fxOve5V1Xtl3qees75b+CHvXfVequ1Vq1a99mnT7/mr/1v/6sDAAAAAABCkAgAAAAAmBAkAgAAAAAmBIkAAAAAgAlBIgAAAABgQpAIAAAAAJgQJAIAAAAAJgSJAAAAAIAJQSIAAAAAYEKQCAAAAACYECQCAAAAACYEiQAAAACACUEiAAAAAGBCkAgAAAAAmNypIPHP//f/3eFP/oO/e/jXfuHv3QjVpTq7tgAAAADAw+hOBYk3GSCa6uzaAgAAAAAPozsVJHZB3E3o2gIAAAAADyOCxBW6tgAAAADAw+ihDRK/7UNvP/zEc584/D9/758f3v//+tzhb336Q226Nbq2AAAAAHfV6//m/6U9fi1/4//4fzo89rf/7qKt24HzPJRBooJDv/7f/7//7zFQ9GcFj12eOV1bAAAAgLtIwdk/+kf/5PCe93z4+LlLc4l3vvMXjuWvpXZ05eD2PHRBogNE/XqYxxUc5ksBoyh9put0bQFwue98/WOHX3vmNw4f+OCT7XkAAHB9CsoUyP3Y//X/dnzv0pxLvyAq8Jv7hdBBqj6vSY+b99AFiXrVAPF//yvvOQaEejkw9F9F1Uvvmb7q2oLem97y9sNnnv3t43s9p0BAAYECg3oO5/noU5+cAqzHvvuNx75/x8+8+4F0a7mMU8ZJbZDu3JKlNuvaXP65ddwl6o9nfv1z7f2zdx7LUwP+0TX7DxDm5rPmxCV/wFDXJLVBbVGbato1Ts2va1OfdelvYs6vaa/auOd1+5rtU1mn9vncPB2Vl3lG8z9pnj73/BeGc8Xm2tJRutucfzelm+e69jpvdF7Huv7wsyiPdePbpdsjB2j+66DX/hUvA8CRmkafdSzT4HY9FEGi//tDv/xXSvWegWD3V0313yrqNfeLYtcW9EYL5KkPL6yjvlaf67MebHMBl9LWh2KlNCrj2ed+Zyp3TtapvNrIjHTzQnXUdNnGnE/dQ73L39H11E2Yvut4l34kr2Hpejtr5r/KndsM+l6qZevYxz/x6QeOJ9U/yi/KPzon3RjamoDDMq14kzz63JUhao/n6Zq5kPNH5df7pV5DHeNuHiX3bdYzJ9uf1lz7NdTr7XT3nY9n36z1+M//w3aOPfGhj7XHUzf/co24VDcn1nBfZD591nzRe+07zxOdy7F2/aPrVr65scpyu/PVbc+/m/JDP/xjx+vJMdJ7zmt913mtgbWP3a+1r7p+uuZ83JJ/QdTnNQHdqf7OG39yMfAkSNy/hyJIzP/mUC8d06+HeumYPjutPtd/xEYBotLlsdS15Vq8+MxtPnRc57vF/BJayLoH0Yjb4fS5wNZzNc3o/Nx1Y1k+5L3B8EPQc8t9rbRK4zGrdN7BicdrabOh886j764z89V2WZe2PmCXHrg6n/Owo/q7DY++q131+KhOHZtri61Jp2vO+2Ct7Gupdemz50MajUFyXqWp9eR5fa5za62sX59Vhjdw+p7j5PNzY5tt0vtc+lqe0mffiepWG3ztWb7yu1/cn901znH9Kqs77/aMznfjcg5dU1f+klyvR+OT/ZTHO92cUn59r2PRjZfoWNfWEdc3ovq7etKpdSbVn9eq6/O8z89dvXbp+Kne7ryve3Re4/rjb/37x/e5MXZ+vXfnL6E6VffSOHaUJ+9Bf3aZo/bOjVGW6e9L8+e26a90KiDzX+10sKag0RTk1XyncDndOSNI3L87HyQ6QFTwp79m6r86qkDQn8W/Kta/dqpzDigzmExdW65Ji40W79GipwVnbkE+lRfEXNh8bLS4dYt+tkvXkA9053EdSlsXYOVRfi+28tGP/epxLPTS50y/V5/97G8d26v37nz1Ez/5zsMffe1rxzx+dXkz3Re/+KXpuPpT/ZoPb/nwR54+9mceyz53vm6eaXxyPojnZR23pHxZnuvIPPrseeJjPq60+gXB6VWe/iRX9eZ1pCxbdXdpqtzcWjf/ZPSQ17HueLUmna89+3uJ2lnvsVqXPns8sg7f3+47pclxc16d7+qp49qN85y59KonN12m9nRj6fHJYxpf/wo66lPVnf2Rdeq9zjmlVZnup+zbUZvnKK/rz7bkedWhY6q3lq083X10CdVRx7rq2lqP63P23YjSZRnZpypH5TlNbZv7x3m7PGs5X9fGkWv2fbY751J+7vItUR+prd16l1Svx87HTpl/+qx6un73tdXy96brg5FMW8dI3+vaWufpXvivlupXxPxvEHU8A0Txf6+Y+U+h/ASJd9+dDhL9V0Ud3NUgUd/zr6I6KMxjChZdTv2F0bq2XJMX1e4h5AXID9Jr0GLW1TU67vbVhS/bpgWzbja8sP7c4+9vF2PlUf76MHJw9OKLv3/4gR/80fvO7dFWQaIpQHz55ZcPv/C+Jx44N7fJqjxeed7HPLZ678538687V9vg7zV/tuWtP/Wu4+f3vPeJ+x6+ztvNHVO5c+dFdXUbr9H8U5ndQ17HuuPVmnS6bre7qy/P+5jaWe+xWpc+u6+zjOxvneu+u4+6/qrHVKbKdv4lNb3amRvwpA2u5kIdm7y27pjeu/JS9rm4XT5e+9jl1+OXyrHxMdXj+vSe6UV51CfXaoPoumpw3KltlbyG7nqS2pzzzXL8lFdldPVb7ZdRudekslW322lqS22fOEBT23zP+Nrczvye6fJz1rWG8qhM5VfbujlkqreO1ynzz/1eyxC1Q33ga71Nbmc3TkuyD/TZ19qNkfrM82PUf7dNQZuCMFsKxvQr4yX/neKaOjJI5B+u2ac7HSQ60PP3GiT6V0Olk/z1UBQsOo1e3X+zKF1brk0LqhamurDqux86frB4MTJ97xb8XPAyj/56lz+nrCuPe6GtbfNxLYjKo4VTx3xe6dUu/amk0tR2d3nuolODxHRJXqn9qj7Pca/y4eU5kuOqMdEcqGOlfHVuOH+mrXNF6fU984nK09hrbihPziWn8bFuTprbsKQrQ991vEs/ku0bUZo16ZKuI9uo790GrKp16bPHw/efNzY5LqK6PDbie7FbZ7IsfXcalzcaB5WfZWb9onNqs9Ipvc/rWH4f5c/r7fqs64/v/f4fOb7XNipN9kPmz3J83PlP4TF2W7KtKl/3g9Vr7fJcql5vZ1RvHtfn7nqrek3ZrypH5TlNbZvHwXmdxnM4j1+L6lS7c+ytzgnJ9qjdar8+12vz99o//sORetzq9ZvL8x/Iqh79zZJRv+i80imfj+laTpl/St+tqzrue0r0uZal66jXou95rTWPuczse6XNvKN+ErVf1+f/Bjb7oOP6nDbHtUuvuuu8uG0OxhyAnRrAnWNNwOc67Nr/wioud6eDRAWFCvLye/3rphn4OSgU//qYvypmAJm6tlybF6Jc3LQgaWHy4uTvdQHS91zsVIYXaX3vFtWqq7+eq/m1SOohoeP6XDcb+VBxGbnwd3lG9Cuafk3TL3D6Jc7HHWTlX8cccRl/+IcvHfPol8qvfOX3jp8zf/2lr9bpcvTSu8vIQC/T6DX6VfTaQeIadV7V86NxyfH2eOqBnPXreD5AdS4f3qpTm3Q9pLWhef8HP3wsU/OiPniVV3Uoz+gadXx0HVbbZPqu8utxldndBzom7r+8rlOMriXbM2qD6Vwt1+1z+Uv3nyitjmtDmfXpePZrlivuA5dX04uuw/OopheVee9633ZMp3P67l+U9dl1jsYw29W1obY7ZZ/4c9ef3kzWske6dlSqs6ZRPtWnzzkX5vJcKseoOy+jevP4Utuyr/Vd15l9Le5np6lty/4xpdH6UcsacdlruI2jPDpf51aOm9rtOat+yWur3815ugCmu/56LstVvVpnuzHR+bny8zpGeXTOzwOn8Ti7nDrupvNO4zZ3Zdd84jJdb01b25CUR2mVR+nV16L0ylfTO4/mgdundB7XLr3qzT7Zgxrw6fNSkKi/KnpJ0Ka8/iunSb8YZhpRW/gFcZ/u/C+Jc0Givvuc6bzTKb+DyFpW6tqyhVzA9L0ufl5M6wKk717AlEcLXl3AlKYuhC5v7QM0f4H0Quwy3VaXZXXhz7apvtqmOQ6o/N8qOpirQdxIDdzypeM6XwNEv5bO6+VAL/+7ynx1geI1gkT1s/pef20zx7NzrYeX6lVd2oRkmXMPUI13zoc8Xtvm+aRjOp/3xbXU+Wiqs9tg6Fh3vFqbzvdfd9+N2lDVuvTZ/Zhl+H6tdeUakOeyb7p+qm1XXXVslV5zQXVn+po354x4Y5tlKm23Vuj6FOAqnd5zro+4T1S++8qyzS7fafS5XmO9Fun6olL6ubY5TV7zmnJPpevt1u2qq1ft8/H8nGlM19DNv+xf5VUZXf2W/XOKUf0dp+3mW1JbujZ6rVJez2tfm+uv38156l+3HqUXHXNbazr1bddnOt+1/dT5p/SZRnlyrdZxnXd7Mp/rqvVkmlqfuEzPm1qn6LP+AFJp3Se6PufJfOrreg84nfJrPDJo97Gsz2r/78W5QaJ059ZQMKh//CYDxKxXQaG+Exzu250OEhXg6eVg0L8KKtjTsVGQqF8R/auifz10Wd0/XtO1ZQtadLRYeYHSey6eXoByoXM6L2BanHKxS91CnOqCP6LzSpcLs95zcyVqi9vlY7nw6/ya+sxBnoMtB2MZYOm4zvvl4C7zK33mFafTZ73yl0V99jHny4DP55U363cw2x0z16f3PD7H88Dj6vng46MHlPo+547nW86RkRxr1aOyNG5dmXUeWDcfPJeyDB/LtDlv/L1r5xrun1Fb1RaVn8dEx7rj1dp0uhb9wYuuq/bLuXXps/syz7lPu7mhY9kv5vxZjqmtarPzqM56Ddm/Nb3pe86tpGNqs967MdExtdtrSJdG390fSWWqPWqfynA+tcfl6Xvm7/pQx1RGtl/pa19UKqOmqe13n/nYmnJPpXaP7lfr2lqP67PvrznZd5L96+t1mtq22j+n6MapozrUzjX1ZNtN5XvOZp312vzd/eJ7wHn8B36jvujqy3JrPbWdOq/jOu9jtX+d18d0vuZROTmuSptp1N56zzhdlut+qGp94jJ9Tf7e5VG/qG/zupY4j8p5+zsfP/7hU/aXx8h9nubO3aZzgkT9Cnjpv3BaZb0KGvnrpft3p4NEUZCnl4M9UcCnYFBBoD7ncR1zINgFiVmOdW3ZghYgLUSizaMWvlzcfL4u+Ll4azFTPi1WmWYNL461/OSHQt3Y6XN9iOXC6mO5iHbnlyggc0CXn33+1CBR7/qeZfq4y3RaneuCujw290ujXtcIEpPmh8fL88MPy87c2HY0XnUepqxf5sZU6bIcfa9t8hysc9jt6OZ2bUOtZ8Rz+RRrylWaNelS9pvHMa9ppNalz8qXc0Hf3X+qJ/P7uNLVvh2Nhbh8l6c6sp/MeTN9tq3j63E6bdKy7T7ucXY/+bs+W55POpZrmK8126E6XY/z1fJy3HxM57Oc5GsY5avtV7u8rnbnL5Xld+ela6tke2oalav+c/+q/BxDG42PjNrm8e/6t6M6ansqt0/paxtHurZnPSrTzzq32WXn90yXn7N/u7FXGs3ZbG+tR3xt2Vadz/GSUR0eg+68y9Zxtyfr8flsjyi9y1L62pY53fWYjnncl8pUm1SOyuvOp+wvpfcY6Zy+65zeu37dg3OCxDVpTpVlblE+ru/OB4n+l0n1ygBQQZ8CPv+1UtH5UZAoenX/wmnXlq1okfGDLTcxooVHC1BdqPXdC1P34Eguo1vIlvJ6AR7l9cPEx5YWzHMWVAds+u8AFdgpcOvSddYEiQ7aslwHjnp3vlN+SZzj+vTenV+isffD0mM7Gr9Mu4bGUg/RuTGqZeq7ZBpTOp/T57Xz29yerE/5dSzL0XlvFKrsG6Xrri3bmeauLa1Jp/Nd+9bIa6h16bParzQeu+yvSumVxhudLEtlqL46TlLn2qgvraYX1+08XRq3YVS2r9ef/dfCsr/SqByr61iW37VP5+pGc6kvRGXUNMqX/V8tnV/L19H1zxruj+wbyWvK+3Ku3VmG0mqudXVa7eu16rgmtUFln9q3zlf5flFdDibq3MnvmS7bqc8qS3O6tl35VFf2fy03j7ssp8+xcpq5cZLReR1X2fpr4nV89FnHsp1uo8tSW9xnTjOnlql8+uU106hMpfH/07GO0RrZP9lfql/jkf95h87X69qT+lc7lwI0nVOa/O8Hr0G/HOZfPe3SYF8emiDRvxLqpb9m6l8Q9VkvB4P+66b6nEFilqPvqWvLVrwA1kXKtADpvBdiLU41rdLkouvFy/mcJxezmibL8LmaJyld9yDrrsG0yM+d79RfCtcEYrYmSNzyv0nUS+fmysjgcw2Nhx+WHif1e00nmTZp7DTWOWc8D5fGJ8t0OaP6lS7nj+tQeuXVZ9dfvytNN/dUpuZlXletp+O+GpXZHdexpXJlbbrO2n431aPrF+VTfpfh68i+ye96zzHXe/73gD5X08nSXKtqerdR7faxrt90TmlG/eHrcXn5rzvWtEqX5bhNKt/11jbos/pE11/boTq15tXxqvV01L6aRvmy7qq2TXwNypvHt+Zrz7mjPtJ/36U26bv6Re9uY9cnuh71q9RrUN76TDmX+lvtybJUn+qtc3sttb1rs687j7sPPC+z//JznRduY85nl+W6nWbE163yda0qq9bjck6df+JyVVc977Z21+S0TpPjo3d913H/a8Q+73Mqx3lVXvaRylafjv4ld5ehNN01Vdlfeb0eA8lxyOOiOnTcZeS5m+D/vcQptviroA4+hV8R74aHJkhU4OdfD/Xyr4b1v0vUsRok6rte3X/DKF1btuQFpS40kouiKK3S1cUnFyyny3K8SGaaLEPp/fDMRbGjfPq7+12a0aLo66jtWsO/vp0aUK0JEpWuBnH6rGO1HL30vuZfN50rP1/XCBLrGKRuTpnnjOaFxnLN2GT9+jwab5/P+vXZ6d12nx99z42A5qXaqmN6F81r5Vlqu/J4ftdzo/y1/SNr01Vqk/pf16nAxGOW1yzuC52r1+D72u3PtmSfuq5atu91pVN6H3f6WlbNPzKXXm1U2aM6Hfj5mpKvT2l13f5vPLt6lE7nvOmsfaeyahuy/yod13lfm8tzPVlO5WurumuU3BjncdWn43kd51C5vn/ymNo015e6Rl9LplN7aoCna1Mdf/fvvfWYV3nm+qkr41yqO/tWbfX1+jrr9S9ReWvHQ+XquPso6xddp3+ZcpnOc0rbPBdzLDo6r3KrU+efuE7l7+rN6xCVUcdD9N1pnE7HXX72V21LvZ6leaV71fXrfal/Vb7LVL01vc77/s/PNa/q6vrwJihQ1C+JCs6WbPmPybgd3Tnsz50PEhUY6pUBno4peHQwKA4e9fKvhQoS9cuiXnp32qprC+6nBbE+0HNx9EKfC/nSwowxP1DzYeQ+Vr/X9LLmAZXjNConuUzJtlR+sLvM+l3qw1ffPX/0XWl9XvWovpo/59eI0s31hc/rs/tZRtfna1lKN+I6uny+Tp0ftdfUFzVdXqfb+fjP/8N2nijdXNvdFqVbmmtS7/kcW3F7RZ9dvj6rDh9XWrc954PL918xzXa53CrzJ+Xtzo3midpV+yrHao7KU/5an4573tU5JV37unLWUh7lVdmqV99zfMzz0/WI/hBD16v0WvfdD07rMrMc19f1Z3e9I7XcNCon557aoTLqtWbb57j9Su/PGgefz/HQeR/PNiivr0PH1If5L5q6PL1nOf4+4j5eSqfz2U5RHdmm2o81/W1x29z3a+X41v7Je7fru66/rBsbHXP6zJtzBrgL7nyQKAoAFfB1/z2hAsIMBB0gil7+NTHzVF1bgIeZH5rdAzPpoedNek2r734oSz5k8yHq9KrTmyR/zz94UFrlGQU5d4Wvw/2y9jrU1zUwyXO5CbW5Mbgtvv5Tr8X5dF50PSpDm2v/NVmn6fq0m3PnmKvjpqkfTt10uv2j/h9RWuVhk3sZ9b//xUx91zzXOqc5rL6Vbv7T//e4H9bcf7n+6V7p0lS5tvj+UDnd2qGx6O4jj6mO+37by/oLnOKhCBIV+Pm/PdS7gkUFfg4O86+Yms/lsZGuLQAAALgZDuAItoCb8VAEiaJAMQPDfNUA0X/1tB4f6doCAAAAAA+jhyZI7CgI1K+IeuV/f6hX91dTR7q2AAAAAMDD6KEOEkW/MCog1F9DlaX//rDTtQUAAAAAHkYPfZB4DV1bAAAAAOBhRJC4QtcWAAAAAHgY3akg8U/+g7/bBnFbUp1dWwAAAADgYXSngsQ//9//dzcaKKou1dm1BQAAAAAeRncqSAQAAAAAbIsgEQAAAAAwIUgEAAAAAEwIEgEAAAAAE4JEAAAAAMCEIBEAAAAAMCFIBAAAAABMCBIBAAAAABOCRAAAAADAhCARAAAAADAhSAQAAAAATAgSAQAAAAATgkQAAAAAwIQgEQAAAAAwIUgEAAAAAEwIEgEAAAAAE4JEAAAAAMCEIBEAAAAAMCFIBAAAAABMCBIBAAAAABOCRAAAAADAhCARAAAAADAhSAQAAAAATAgSAQAAAAATgkQAJ3nsu994+OhTnzx85+sfa8/flA988Mmj7tyb3vL2w2ee/e3je3ceAAAAYwSJuLPe8TPvPgYCClrqOQUxUo/PUdDza8/8xrHc7vypXN5zz3/haNTWPVGfLbXzh374xw7P/Prnpv5VoOZrnONyRfnnArg14zcXJMqaMq5J16XxXjvGun71Q02va7rJdu/d2vmVcl4szbe1/a11weVfa414FIzm+YjSj/6AR/2ue2z0B1SqQ3lzfDS2c+vEknPzX/t5stZc/92GtffXHqntS8/Dzuial+YvsDcEibizRg/vpU3hyCkPdaXJTWnn2ed+Z7YNanuXr1oq51rymrp+Td6M1XRrHoLK+8SHPjZbj8a2e8iq3I9/4tPH/lBeUXmqU9z+kS03K2qH2rZ2E6BrqJtn9d85m5KHmcZ4bZ9KXRfUl3U9yH5W2tFcyznFuIypb7VO5b22Vu3XOt65FiytL91cyfnQtbMb++R1Ue/d+ZHbupd1jao357uuP6/ZTrmvzuU+9xh03MeVnhNz88rtH+VXXj9rOjqf/VTl3FmSafXueTX6DNwFBIm4c0YPBC++o/O5KezOL8kHiuoYPWBV/pqH75p0au85Ae+p8kGuz3WT0en64JSHoPKPNlEqY1SO6qicXp8z3ZpxONVofi2pbVH/ZpC4VO4W13IXaBy7/piT80D9q3mm4+pjHcu5ovfRXLNurs6NV9b/qKvzfI7mt+a5x0l5cv3T8dF9UNNajnW2xXXlPOjGconapPI8x041WgNPpevsyh/N7bm+PJX7sqt/Sd4rGh/1h8cwx8tpTPnm2u+8+psvOc71vMueu59Hsn73gcpRXZ537v887zYAe0eQuCMf/divHvzS5y7N3nz2s791bK/eu/PVL7zvicPLL798zONXd60/8ZPvPPzR1752PP/FL37pvnPdw82LsY75l6aaZ+lhrDK08C/96aJ0bTCVMzqXXN+SNe25hDc4uZlQ29ZuXtQ2tbFru402KuKHZ5cvuU9Vn8ZYf0L84Y88PW0MVYe+q91z+bs2nGJu7Eec53u//0eO7/quNnuT4v5+60+9q82r9us9j/ve0/2k+yrPXWrtfXoNS+ve2vupozmhvOrn97z3iWMfqx9Hc8Rqfc6T94OOde1SnWqzv//AD/7o4cUXf/94fXrX90xvWuf0uq2132M+18alOee5uka3rtV+XlOe1xb1ea4z+lzTas3wPZf3X5d/ifJ5PtVzOrb1uj2iOtWupbrVxnPvq0plqKyuL+bUe6W2Xe8eo1pHrgs6r88eS+fVc0Lnaz1Sr//U/phL380ltad7TtZ1BdgTgsSdcXA096Dek62CRNPGqW5IusXZi3K3OIvyzC3GWsBVph5Iyt+VkdyGub/KUtVNQz7ksuyk9qpNme+a/ODqrlftO+UBpuvQ9ahv8ngdkzX9uyaNyhV/V/r8rs/u3/zs8+ea2xyMZB6PqYIWv/ucrsHzROnU/3Nj4Pup/kHKpU69Ty81t+557LTh6+6rjvKoP5Uv/yBBfa17NueW0nZzzfdGV77K/bnH3z+NW+ar89C8Vo768S4EiTI357p7Q/2o/s85rGOa13r3MY+X57u/53oyuveUXsf1rjQaI+fL8ci2jMbpGlR2nVOjtl9b17eda7Ynx0p96/utO5/56hjUtuvd41XLUL5sf/fdY5CfrR47tT8yvdo5WitE9Zjz57VlucCeECTiIqcGiencTVG3mGvB1ybS6sNo7gGgYzrnTZ/SamPpB1Vnrrz6sBpRuu6BUtXg8lp0DSpf7dB390M+yHQu69cDTQ9x5fNmzmlHDz2V4TJVh+pVmTV/qg9Ucxuzf8Tp6/GqK/NcanvdDJ1irr/U1rn+uUm3HbyoP+buNanHxeOj+eZx0jH1q445Xc7PEZ2v4zFaA5R21KY9WxskzvGaskZd19RnOu5+Vllr+7zWm/2f4+F7Tunz3tPxuU3+nDp3VJbandcmo7ZfQ73+pOvSH45017dVe3yfuW/8Xe2saVPtO717nNROtddlaExr+1Wf68xxV56cS7Usp3F5bm/tL8kyu/5TX/sPtHxe16H+z/Sj/MCeECTeAX5460/a9SfuPu4Abc2vCC7jD//wpWMebQS+8pXfO37O/NoI5quW7XL00rvLyCAx0+g12nRcO0j0w6E+aEZ5zHl1TmmUVnm10I8W8KXy1iz+a9LpYeUNbnf+XLreuknz9bsfTWmU1g9HH/PDW+nrg3TEZbuuLDMpXW1H6vIrfX7P/s3PPn+pNWPjzUZ3ne7DN73lbfdtSDKt82u+Zd45vq/ynvQvdbovdX/qmNcPv069T+tx3/dZjt713a+sfy2PnfpC7zmfOh5n9dm9deBt0zh1963Kn5trHgPRZx8frQF1Hs6pa6Veo372u175LPCarX7Wcb9cjsc+83js9e7z3euc8apyrejOi9Kof/3rutKqD2s/zq274rmi8/qc88LBksrXu46tua88/mvSql7V382npbZfk+rPNqwZgy24HarX92CXTsdrEJvjpfzuW49DjrXL8Vjl3x7I487b9UeOT01vuhbPyTqevgadF6dVGv3tBZWXdTqNywb2iCDxjvBDfe7BP6fbjPjljYA3G/XlTd/cZsIb0qUysk2jzecSLc75MLFccJVGi3IuyPWBUtN1D6HRIp4PCKXr2pOyLZfww6urY42P/5NPHdvdXZevf3TNOu5r7h6y51K5XVs76mvlcT/4u8tRYF83G+a2O/2l1IbciCTPUbVF5/WPJ9Q0a/rQ1+k5uYbv07znMijQ9ww48uXzaXSf1uNeY5bWi1MDD9+Hnp855vqc3/O+9LG5cRKX350TnfdYqmyPV1eXqKxs05xuXR71c33puM6P1lz3c/esyPkwt66fMlae86fwvNa7+mzpnhj1uShPjo/leGT5+qwxdRus1qG0a+9BzxWllXq9ldcH5zuHy8hr0zXnnM5z2d56rZcalad65+5B03n1tdNlu2sZ6rOuLvd7PZd9UvtHsu2qqxtz5fFcyvT1upUm69L5LFPplN5lAXtFkHhH1A2YNwa5qasP+9wUOL/SZ17R8Y8//clj2Xp5k5Ll6Zjz5ebTGxiVo2O1jO6YjTafS+qCLLkoixdhH+seKPWB5DwqP793C3m2odZd5YNO35W2PujXctu2UPtsTr2mc6ieri71p8Zlrmz1Q/aLgsMcO8kx78b/Umpfblr0rg2b2rPUh+7rpevUuW6zsiTvLd+DuR5UvrcdeKTRfVqP1zVKa4JeWWZ3bInvL/dZjnunjnMdJ5XV5UuqU2ldZ+bxpjzXANfl8p3/FEv9rL7Td4+V+9nfc3ydR+9ex/O8x8FlSh0/H79Ut1a4X+u8dlr/i5Q5JiMeD/W7x8nHXI/Ho7alWxc83/x97T2osn3/d2lH8+Va8trcF925zFOv9VIaN11n7QPVn8/akZou213PdWMnHvN6zvn162TXlhyf0ZirrzyXuvF03aM+9biofF1XbQOwNwSJd4ge+HqI62Gen30+gzq9clPQBYl613cd/9Sn/pcHNhKuM9PqlRuLPFbrry+V4Xy17Dy+pFucu4edFmA/YOp5ndMDPR8CXuDzmB8WfjBYllfLru3LdjiNKV+WXcu6SUsPuFSvyf3pjVvlTZvzu1+zr7OcejypnQoKxX3Xjd3WfA2+xjon56jdyuM+mOu7tHZu+H7XPZafM43XgXzVNDK6T+tx1+Mgw+e7V1fPyNw9oXOeAyMap7kN2Vz5vpf13ytrrFSW0vtYN+Yqa6lNnXP72eOYfZrHvC7n2t6t5bVcH19D/dTN1zVybdD7aK0Uj0ftc9+LOY76XOvSmlHXrfzerSMuu5Ylbovzie9p57dR268lryWv3e3p+lXpss+upfaj3n3/1LRJ16B03XxQGb4effd9WPtTx33t9T50v3T3Z46Pylc9Lic5b6Z32zo5v90P+uuwW84F4FoIEu8QP/j13wF2m7453gBoU+By9K7vOr7VL4lz6uZnrVycfUwL99zDLs97Qa8PCpWncnU+j2uB10Kf6VWWv9e6a/vyQec0Pp4PRFFZ9SFjtV3X5uuf60er1zS6RtExnavX6Ye9j7n+7Ofat6JytNnTf+fhtK5DfTR6uK+5rlN01zWidnpO6LPmU/73Nkqjttc26pyu59Sx972o+1fvuse1BuS5POZ7u1tTRvdpPe7Aw+uDv3dlnkJ9oj6Tblw7ef8tjZPK7eZG9r3nlcdKdCzrMbc3j62xtp9HQWIGgc6j9xok5jqtMXI9lwSJc7q1wfd6nddd2jTq8zk5HrX8Wp7HPMfPx2pbk86pnrm057T9FCrfAYnaknPa/V3vkwxgLqEyVFYtf43sE5Wj/nOb9K7x8i/LNciv3A71RfaHzmUfZN9Yjs/aMa9td92jNNmGubKBvSBIvEPy4a5X3UzMWQoSdd7H68ubhgwa68ubjVEZeumc29G91m4m68Iro42e+aHpRdqbAL3nA6vSg0IPjHwAuAwv8rXu+t0Puvpgc91ui4/NXceWfF1r6vc16eGtB3cNeJKO6Vx9WOd1i+qt46o8tU36rL5XfpehdGqH2pN1Wdevo3asVa9rjuqWzCO1z5zO33VuabMykvdibvzn7mO91t6nDgLra816sfZez/7qxtBzQOk0lnqv60OWkXmtK1eUXn/ir88q02uBz9d6TGWtnVNr+lnvemlcMo/7ebTmel2vz418ZZDYjZfLcJo56o+6fi6p87q7J9Koz/O8ynVwIF3QoTK6NmjclD43+2rL2ntwLq2OzbX9Umq7rkf1q55uTq+hdqqM0Ricyu1a038aH/W9x8b3kcdFZeT88Hjqu/s+r1uflSfPdenk1PGp6X2dPlbnnui4zq/tD+C2ESTeMd6Y5aZvDW8slN+bCr3re24E6oajbuZcjl56X/Ovm2b59Vy+1m4ctbj6IZJGD0U/FPzAGfECvrR4d4t/nsuH3KhNLkN16V3UTrVxlGdrvv419ed16hrqdVc65/7ytfu76/XD1XWoHVmG+kbn9Qui3vXdY+rP6sMuINC5el21HafyvFqaL74+t9VUb90QK62CXbdpbR2d3PQ7wLB6H/7uF164L+2a+7QGH//0+X92zJNrUxeg5FqxRNfteeExVN+M5prSZB6VMZoT1s2NSmX6Hs1jXRukjvXImn5eGyTqewZ5OeZZj9L87ivjrVcdi9oefdaxTHOq0TzXGNV53aVNdWzzuPo9x9HzJOuYKz/nSZan42vvwbm0Ota1/RqyP9Xm2henUL5z8ya3SW3Rmu17dm78unbrXvLzo46f8qm//+7fe+ux3K5s90eOiduW9/Sp4zNK73k3qlP0V9V9TZkX2BuCRNw53eKcGz0/qP3QkTWLvxfxXNg7qquWl3VmfqWt9fsh0qVbonTOc22+/jUbhNoH9eGddMybL31X+V1/1GutD/D6UFUbRMeUVu/d2Fu9rm4enWrtuOW1mNo76jPz9SzNyYeR56PnvN7n5qb6UwF2/W8F1Yeef2vHS7LP9bmO4Wj+qI1u801wkLj2D9lugvo67+k1a4os3RNr79nRfTMq33OttlPfc050cl643gyKltR5dY56XW5HV1+V9bsfar+dIse+G3f36dJ1uy2Zrl6n7jOlefw9//CBeeE+mJt7Oufy18wtpcm+y/vc7dVxl6Py9Vl/w0X1ZPleiy7pa2BrBInACbTA+5eefGAsPfCc9vGfv/cw2+ODwQ+5uYfqnughm3RMY+CAoKat16Xvzncb6obHcrMhubF4lKh/dK/lpmo0N70hdJ/luI7mxMNij0HiXaP1+Br3mefhTa/vqveJf/zR9twpRmvSknwWru1H1aVgsrunfa6uz3VtlD08S339p1yLKJ/OPaxrE+4+gkQAAAAAwIQgEQAAAAAwIUgEAAAAAEwIEgEAAAAAE4JEAAAAAMCEIBEAAAAAMCFIBAAAAABMCBIBAAAAABOCRAAAAADAhCARAAAAADAhSAQAAAAATAgSAQAAAAATgkQAAAAAwIQgcUc+8MEnDx996pPtuTXe8TPvPnzm2d8+PPbdbzx+1/szv/65w5ve8vYH0q5xaX4AAAAAdw9B4o5kkKiA77nnvzArA8LvfP1jh1975jeOZbi8GuTpXC1D9Th9R+3JegAAAAA83AgSd6QGiXPBmQI/BYA+r/QKEhUsOk0XJLp8HVP5eneAWQPIJQSPAAAAwMOHIHEHul/4ln7ByyDRQZ5/FdQx5c3y9P3DH3l6ChIzYKz511gKYgEAAADcTQSJO1J/Scwgr+MgTWmdL4NL6X5JrMcBAAAAwAgSd6QGifWXujyfvyTqmAPHZ5/7nSn4GwWJWY6PZ/B5ilN+fQQAAACwfwSJO3JKkFjlP1zT/TeG+v7Ehz52zC9r/6po1w4AAAAADy+CxB1RgPfxT3z6SAFdBnkjCv4UFOZfObXRL4n+3AV/Oq9z/k6QCAAAADxaCBJ3QsGYgj7/dVF9dwDoNBnkJQVwSutfD51P5SjA64LE/OXR5fiY6vYxgkQAAADg0UKQuAMK3PwLnoO4U4JEB5gO7hTQKbDzr40OPvULZeav5SmY9H/n6GMuu5MBJgAAAICHA0HijmTQ5s/SBWiy9Aufzo3+uqnocwZ6CgjzH77xMX5JBAAAAB4dBIk74iAu/ypoDeSsC94cUPoXSOXLXyP93b8yZn7XqaAyj68NEhVYKsBUucrTpQEAAACwfwSJO+KgUAGXAjO9rwkSHRxmcKY8Nbhz+f6elNcBZZaX9XT5xAGm0qrN9a+sAgAAALg7CBJ3RMFZ8jEFbJ1R8DYK7EZBon8FVD4fU16V0dWbVB5BIgAAAPDwIEjcAQVvDrre894njgGXgywFYUu/JNZzpxrVcQq1x9eQwSYAAACAu4UgEQAAAAAwIUgEAAAAAEwIEgEAAAAAE4JEAAAAAMCEIBEAAAAAMCFIBAAAAABMCBIBAAAAABOCRAAAAADAhCARAAAAADAhSAQAAAAATAgSAQAAAAATgkQAAAAAwIQgEQAAAAAwIUgEAAAAAEwIEgEAAAAAE4JEAAAAAMCEIBEAAAAAMCFIBAAAAABMCBIBAAAAABOCRAAAAADAhCARAAAAADAhSAQAAAAATAgSAQAAAAATgkQAAAAAwIQgEQAAAAAwIUgEAAAAAEwIEgEAAAAAE4JEAAAAAMCEIBEAAAAAMCFIBAAAAABMCBIBAAAAABOCRAAAAADAhCARAAAAADAhSNy5D3zwycNHn/pkew53m8ZV46vPj333Gw+fefa3D+/4mXc/kG4tl/Frz/zG4Ttf/1ib5lQqR+Vd0q69etNb3n549rnfOev+0ripr9Xn3flT5VxY6xpzxuOrulXeM7/+uWO/dGmvzf1/6nU/7DQXnnv+CyfJOaB+1TiO5ubauaY0KltjdFNzYoS5sp766JQ1TelHz4y1c6VbO05tx4jHXnPxms+2rVzruoE9IEjcCS2yWgDrg71bcEZpRWm7BWpp4VJZ2nDmxmPJXViw90zj4Qew+3+04Vfapf5WGpWxtJlSHXUsRxtBBxEPW5Do/v7wR54+OdByn8z1ccpNTsrxzLkwUufI0pxZy3WrvLf+1LtuZDPuPlQ/6BpUd5fuUaTxkO5c1d2fmm81SNR4er6N5prnUzc/bxNz5UEaP4/TqXJuuW89HzwHPJ9Gc0VyTilfBon1e5Vjai6rXttozNXGTCd+jo3W3NG1nENtUptr21RHvX+7tPqc99sa7qMsG9gSQeKOaHGpC2JdcLywfPwTn74vXZ7T4twtMB0vOs5bN5z63i1MahcL1mXyAVz7X/2q/vU4Ka3SjPpb5z13/ICsY2l1TJVeebsHutsxKutUvk63tUujunTN16qzcht8X6keby5qWlNaj8Uap7Y958LIaC24tJ9q3RpzBYuZ5tpUp+eAPud1PerUF92cmpNzwPe/53S9h+t4d3S+ru861tUtl87BOcyV09R1Yo7mR/6BgsYxx31uruQcUf4MCufmisqsczLrXdv+2tZsQ70u1ze6lnOpvPosq+3XOaWpezYfr/dOvS5Tud1xYEsEiTtTF51ccLTw6cGvY5nH5haRLKdzjQXrox/71YNf+pzp9+qzn/2tY3v13p2vfuF9TxxefvnlYx6/umv9iZ985+GPvva14/kvfvFL03H1l/qtPjj9i1Yey7Fwvm7sNa51LDxX6nhKHVOlVd1PfOhj99XfWfPwXqL6VVbXNl9nvZ5rGd1Dc20SXXfX95XbPyon+Z7L/k3Z1253l27EbXCbujRzch26JvWjAxh9dz/M9e/ofroWrwN+qS7V2aW9lOvSOqL1pJ7XuJ9zn3mctRnVBvk9733i2K+aB0tzp9ansaj3oI7VdKfM93NsNVecZstxXuLn5aiNP/CDP3p48cXfP6bRu77XNBqPbjw7dTydP8d0TXke65wjGpdRgNap80bvLqubZx3lqW3zXJFuzs/Nm3OpzFwrs/1uR1ev53K9d7Iv8rjK6I4DWyJI3CEtMF5UcsHJ41UuOF6A6wJZ5YJzrQXLD9/RQ21vtgoSTRuAuc2gx9NjVvvfuvHxsZwf3fk6Z+qY6kGmdHrPdLLUrnO4Xd388UP1mvWZytS8H5U990Cfu/fSOf3lPFm+6vO4dudldM9WS21ae23XoLq8kcvjo7lazd1Pl7jJIFG8jnQBgvpIgZ7GrK7ZIxpb96H+sEeb9B/64R87Bop1fEfjrTK6ssV59J55zpnva6murebKXQgSzXOze850Y9mNk45pnDRePub1zmn1vQZ3XfmWZSqP8moeeE0arVtS543eXVbX/k7m0Xe3QddRr2WuLdeQ/ZTtn+s/z2P3gdXrMpXTHQe2RJC4c7ngzFEaPcy1wHQLYi2nW2C1YNXNwZyHYcE6NUhMerjrNRckzqkPEI1J18+W46d8OpYPGD/0s0xRvtxsdfX4fG2T51LWcw2qo9sA6rjmoebj6CGqNmZf+FheT+bxNbjczFc5bW1b7ZeR2l9L95XKdJ4sP69R7zqvdD4vo/6papsq1eu6tuI25BioPdnPvp6t2zJnF8FDjH13bjSO6kdv1L1B1jH16Slz2WNV51w3T5bm1jnuyly51NogcY6uv1tXOjme7mMddx/qvfanvo/mio67TI2H5pz+gMJl6Lj+oKKOpc/puOeN3l3WpetRtlnl6hqvOT+XrG2/53CO0RL3UVcesAWCxJ3QotItCnNyIdQC7Q2CF2Cfd/n5PRdlffeCVRfTms5U1toFy39qXjdeDtDWPCRdxh/+4UvHPPql8itf+b3j58zvB69ftWyXo5feXUYGiZlGr9GvotcOEtfw2I763hvFfCD7uDZZqq+OaW4kdS4f6K6vzotLZXt8zHPQD9jRnNR5p+n6w2Urn8twPcrX3UvmjWht31K+qusvleV2p66PfY1qRzeeMuqfyuXXNnqca7tUns9lOedyX9ZrVz3u7zyudGvrz7+Sl/dht+b4fvWrW3dGQWJ3vPsDpqX1Zw2Pvce3jlvlftU4apz135N6znRzTt89rzser7ynpCurm7uX2HKuiMfMr7lx9rzSy+Po+ZbPDr3yGeG5l8fyWVGfL/mq7TlHN06V54qDOo2jfr3u+nc0V1yG8qr/Nedq/i6tvtd5o3efV9punpva5HnSnV+y1DdrqZyu/DnZl76/672TfZHHax8CN4Eg8Y7KxVv/PZs2Bl50vQB3i1TKBWfrBcsPZ2/kuk3XnLkHq47rfN2g+eWHtevsXt7oLZWRbcoHfx5fyw8ZPew8fnWMUj5gLlHHVA9cjb3ePXc8D+r3a9L15wZPdeRGcDQnlU+cJ8vINKfMzyUqb03/j/pLx7tNmHTXuaa+Uf9UXZv02f2Tn12m69Z7NxfX0Fj+0i8/1W7u3YbROR3TuaVrE68NGZDlvemNffeq9+5oXeqO1yCxBiB+ZbvW8NiP5kV+Vzod83dR343+YEGW5pbOa/xUt+as5oWOd3Xl3LoLc6WO0Wicu9fSXPI431SQ6HFaS+PpOaE9g/qtG9O0NFfOVdckvXsNqm1Sm+cCUHN/KL/n4po5cVNqX3b3t2Rf5HHl7Y4DWyJIvKPqglMX3Uppc+GtC9FoIb7WglUfnHpY6uUNltQHdD4wnV/pM6/o+Mef/uT08PbGL8vTMefrHt4qJzcALqM7Zvngz+NzPE5+cHsMl8avjrc3Ri5nTt1c1THVOT2snCbPL7XrEipT7XPZusZs1+ghqnSey+qTer2WZV2q9v/IqL/03e2p9476PTf1LiPrm7vOTpbftSnbk/XXMdiS2jDa+J/C96jWAa0Tvu/zPq90v+ul9zzuvLn2jI5nGT7vNmSePLaG55rnfze+yfeC5Xh67Lt8yXNDeZRXwaHPObhQm2pd3dzawrXminXjmcdzzEbPCM8dP5ucx99z/nXPCj+PdM7HrqEbp7rGmNPq/NrnideHtXPLcl2p80bvPl/b7zmZY6/ztfxuDnbpat/cFNWra/P37rok+yKPK293HNgSQeJOnLJIWy44ddGtD4W6QFXn1H/qgqWHoR+k+dnn/YD2Kx/gfvDqweyHq971Xcc/9an/pX3o58NZafXyw13yWK2/vvIBX8vO42vlmHj8un62ufHraOy1wasPxfoQ0thnkKh8Oq/3Oq+uKdvn+ZfX6PO1bqX3NSn90jxUmq4/l3hzrDJUX5dmpGuzj9U+rdfg80vjPeqfSunqZiTrdDlKc82N+BK1+1r1eU3QfZyfM43v9XzVNF4D6jrSHXd5evf61L3qOrdEc2U09jmPRtSfufZXc+XruM97fui7j+k909e5vJVrzhU5d5zrH0jofD3mubBlkKhx6NadNXKt6cY0edy7c3Xs9e6y584t5a1t6tYv5+muT8eVttvPjK7lHKM65mT95+TPPgRuAkHiHVUX77rois5rYdG/cNctskn5clOcx7uFSWWfumD5oaj/lkMP0VMejn7w6kHtcvSu7zq+1S+Jc7YIEnP80tzDuuONfzdGdUw1L5S2mx9L7bqUrkkPSv1yUeefryGv2+3xJkLtOmfzqPwuY421/d/1V/a3PucDX/+wg64x07uMpfrcP5m3o76pQUO9fn1Wm1zW2rIvobLPGbuO7/U/+IOXjnKTv7Tx78rJtN3xXCtUhs87UMgyT5Hzx2OyRo5lN95Jabu5pXwac73rvOesz+tY1iPdfN/CNeeKrB1nHcu5Usdd5/1s8tjXINFl6pXPCj+PzgkS53TjNJoTXdo0mitSx17vnjNz5zJvzmGfr3WqzaMgMcvMNater+sbXctNqNeldqq9dUzqdZnydseBLREk3lF1wfEiqAUm0+l7LsB5Lqm8Ls01F6x8wOp1SnC1FCTqvI/XV/ewri8/8Edl6KVzbkf3OvVhn2M4Gj+r4216GGrzlBsoPyxH4+M5kUYbsLl2+VzXrrXcfrVB15jnXH5eh+rKtE6TD9s111/rGvWvLZ03t8f95e/uZ9erNmoTo+C4ttPtH80FW5tO7Va92dc53j5ej6lsf9+C2p11Xkr3sF95L87ds147Mm996b6va1e+vHaMynAdbs8c9YU3t92c0zH1m9L5vxf0+HZlZF7ryhWV6+N6r/Oy1iN1vm/lWnNlaZxPCRLry3Nu7jmjOtyWbl5mvUs0Fl5X1sg10roxTaO5InXs9e45M3euy2vdcbV5iyBRaTSn1De1HVuofanv2X6r12XK2x0HtkSQeEfVBceLYC52SqMF0BtRPyzqgujFslso5xYslZ/H1vAD14Fbl6bjB6ryO5DTu77nJszn/KqBWz6Y9b7mXzfN8uu5fF0jSPQYdXK8K51TGj0kNZZzY1PHVOM/CgjywVvPzeVbK6+7q8P1Zx/o2ur16bvTOF2eN7VV/2iDv7vfbNRvOj7X/9bdhyNK02189X10P6a5sbGlNL5+96vSKo/Sd/f9NY2u/1y+N/N+tbou/NPn/9l9ab0udS9v7PPe12b+d7/wwvFzrh21nlM2/eJx0GfPOfVTztGkc5lH1J/nBIlJ5+v461jXBhnNr2u51lxZGue1QaLmwehfN5WcBzrntJ5LXTq9Tp0vnTofZDQnurRpbq7UtU7vnjNz57KMSum8BvmYPo+CxNFcVFrNl3rO15LtW7pfriX70u1T/TWdjnV9tTRWwBYIEndgtKAtycXbi97PPf7+43s9b1oIc9PthWu0+OSCpXTOJ90Ch2Xqa/VfbnryoVXTSz5gRlzGpWOjvDnOHv8u3ejcHtW5bzn3R9fkMVtrqf/dFqfLsRO36dy1QZRP/2JkXl/S8bohy3t8ab5dStee98Cjrs4Jjc/cGCid0+QYqz+96dXxnBMjdRxUZr0Paj3iebs03y+1l7mSQWL9g4jbpLHJ8Vw7Ht2YJs+v7njWd4rRM8NrXW275vEoSMyy8v7Je0DnPE99LTlva9o13Nbu+ua4/rl+z+tSusxf+wbYGkHiHTVavIHRw/ba7tIc1AZAD941GwFdU72utdeam4/uPL5BfbSHjf9eqD9y4zg35+omNefbOZvevdvLXNlrkHjX1SAuaR53QeKlNKduMvhiz4a7iCARAAAAADAhSAQAAAAATAgSAQAAAAATgkQAAAAAwIQgEQAAAAAwIUgEAAAAAEwIEgEAAAAAE4JEAAAAAMCEIBEAAAAAMCFIBAAAAABMCBIBAAAAABOCRAAAAADAhCARwJ3zgQ8+efi1Z37j8J2vf6w9v3dqt9qv6+jOA3g4cK8DuKsIEnfsse9+4+Ezz/724R0/8+72fKWH0Eef+mR7zmXtYWOtNvLAvL5T+1Xpu/niTc3aeWcq69nnfufwpre8vT1vOv/Mr3/uOCe787JmLs+1T2lUR9eWmr9+P/f6T7F0Db7+0RjN0TVrHJ57/guTWs9oDOb6PSnNaK65/lPbfQpdj/qvtl/W9NlojK859nN9OWq/58WWfXeXdHN5SX3GqS/n5urSWnQpj+loTm19rz8q1I/ZD2vkvNA4jZ4ZMnc/22gMl+YAsFcEiTunhWnNxntuc5PntIAtLVSqSwvaUp3WPahkVI/akIsz1lPf1X5eqz4Q86GVY37ORlllK/+HP/L0A5u0yuXPzQGd6x62onbVa6ttnXvgq+xsY167vuu4ytOcXrqWc6kN9Rqyrrx+taW2d27jrGvR9bsu+aEf/rH7vquMujlWPV3eaq5vfe6tP/Wuw8c/8ek2TVpbZzVaQ+balnQ+x9zUx+rrOp9Mx2t/K72uN8dEx5740MeOfVDLm6vD9/eaNf9RMBqnEfWp+jbv2TpXNEdUptKq3HofXNtt3+uPCvVjHfs53byoa4fGw32c49Tp8ls3L4G7gCBxJ7R4aBHpHgQjXuC8sUj58MjFcM1DUee0wekeQJ1apt79EK5ppS7OuI5T+rU+tPIB6Lk4Gr9Keb2pdV6XNVLrV/o6hyvlqXNL79081ffuge32ZT/NlTE3j8/V9W/2f/c9rbmHl9Qy1Jauz03t/d7v/5Hje3dO11SvS+8+l3UnbWh1nUvpbNRO99XofB1f9+/SdSelrddUvyfVoXMOIJU2j9c8Ou526jOB4nKQ1Kl9q3HW8ZwjTnONe2mO6lBdHnvx3Bt9T1u372GifqxzYYnyOL/6WPefjnu8NC5OMzdOOl7LruV050flAXtBkLgT3cNkxGlzgcsHX6bNRc70vUtbKe+aRaw+yLzYKtBcesCvacdaH/3Yrx780ucuzU/85DsPf/S1rx3pc5dma1/84pdm2/gDP/ijhxdf/P1jGr3re573+Hf92aljWOfPmvJGG1aVXTfgLq+ObVePy61zLR/IKlvzS+lGx0flm9uotKduOq3eR+fyvar7IzcR+tVprm1Oq2s4Z+Po/lE5WYauS/2jYKbmUdqsW3IMLMvO40pX01bOu6Z/Vb7SKo+PuT061v16qTw5R0dtXTonrl99pf57z3ufeKA9pnbVczlnPRdVptLWe6w7Zp/97G8d14eXX3758Avve+KB85fwGpkv1delvVTWpXWxnte1a+y6PljicdcY6F7Tu+dKvbfSqM/P4fly0/d62nKuqDyVm6/Rc+1SS8/37n5bS2OivL6nNW88f7rxMden/Krf5eU6ojHUeNd2KY/kMWBvCBJ3IheV7nxy2lyURouUFr26sOnh5L8GVReupAeTF8vuvNUH2VK+2tZr8qajC67y/J6DRPPDvaYbzZWuX7sHkfJpHjitvudcGJWfnGZuDqlezYPRBkfl+3xtp9rm7/qseka/ZInmtDbubrfKzM34aKO1NFevLetTe/VZmxK3VWmW+lbp5jaYI9kvrjODHPW3N8hup8fHdbtt2V9Oq/JqnTqu9Dm2HdWptO6DEdVb+8VzJedMUp68jrm6uutLrj+DRL13116pbW6nytJnr8Pu964+5XWe5A16F1xd4iaDRNM1dEGMx0pBVu3PEc8PrxvqY33WmHm8ci7k92vyfaExvI17PcvZaq7cZJAoc8/3HO+uTzrK4zHQfyrhsdE4ac7leqK03foieV+Ly/y5x99/fO/WE+UZlQfsBUHiTnhR6RaTymm9KOlhpMVNefXuzXIuWh2dV7ru4SQqTwvpXBoZPciUv1tY64L6qFkbJI54/Gt/j2T/e+Oi4xqDOpey/NFc9LxYM4ZOW+dAbqD0XeczTTdvxHNdc05pxMc871VmphN91rFa3ty5LeiaVJ82MqpT1A95rT42Chyu0eZRGepPjZfq78p3PvWx3t/0lrfdN44jdXwr1zuXRlRPXY+UV/1ptS01j+rIvnXdI5nWZWWQmGUrnfpD77Vej6vL1WfnnwuCtHlVWrVT5dwk/0HV1kHiSPZnd07jnXMhaZzVZ373sZxjKuPSe2lE9ajs277Xb8qlz7VLaYzzfqvnRveP+lZ9rPtV7+pzj0uuJZ5Lmdd0PMtXG3xf691zYC4PsEcEiTvhRSUXpRGn9QLjzYj++566yHmjUR9Cax4+WsS0uC21q5aVC6zO6XPWfRuLozc7ftVfEv0non/wBy8d+eXNkf8KqNJ85Su/9+rZ+/86aN1Q1V8taxvydY0/4V3Tr0pjSqux0vjmPJibi8qj8VR6janmVW5oK9WjfHp3Pn8Xfde75lmX39wWpfccV1t8DTp2TpCourv6ktLUfOdQv+o69afL7//gh499p7a6nU7nPta16HOWIXPXs5bLcJDna836VL7O5TzQefVHtkGfcx7kOIvy61p0/T6WPN/yT/K7dNKV5Tbps/Kq/iwj87ituR5m/krXkW1yWecEiVlm7ddr0QZdr/pLizfwXpvqWjT6mxd1TRsdr2udjnnN9Kv7pXBJ9qfGyXNsxOOafayxVd46li7f8zjrvZTGfC/3+kidE+JxzLHyWPs1miujILEe97M2y7nGXFH/qR/VV3rv5kfyvalxuTfH3jaNT3fvqvzROuE55u/Kp/y+x922LK/mAfaIIHEnvKh0i9mIFxi913P+Vya1YKpsPbC0+CmtLD18dN4Ptm7BrGmzLL3nJqguhrexONYHXW5mxA+u+vLDqj7E8uUAb2njVNuQL5ex5Jx54rET9b3GZ24MXIfH79pUr9uleanvao8+13rV1txYeW7Va9RcPTVIdFmjvnA/bDVX1U61Pcv3fadjOu9Nb+YbXc8p1pTh/snxUF/Vvteflmvs1F/Koz7Tu9Iqr+iYzmf5ltfpudClE6Wt9UvmURq129emMl2/0qmtOu9+1fmuTMsx8LXUINF/rUzHXfboutWGuWu8lNaS3GTXTbk37fXldSvVNW10vK51/l5fp27+c57mOPqc552+K43SeqxMfa28ecyy/O78tXjeZjtU903c6yMeowzW6rieMlec9tQg8VpzRf2osdZ80DzJvtbn/N7dm6P5Yy6/O6fjdd0Q1ZNpnL9rI7BHBIk7oQWqbshGRgtMLnL6rDR6V3o9THXci+XSw0eLmRdR1zdqWy1L73kt9bzKvq3FsW5mfNwPLh/PoFAPt/zuB6Tz+GFWH7CjukYP00t1/do9DMVpdb57uHX8gLuE26P5qDLdNrdH71lPbb/mkOe40ouPOUis7ZYMGkx5lV7HVWc9r7q7fNegMlW22lCP5fWqXfld8n5S/u56U70GlaUyl67N7VE/1HPZBn0+N0h0WzzmyufxrWmlK0t9kHOmlulx1n/TqoA2A7kuf6rtcf0qQ9fs4DCDRG321e867z5yeaqr9rs+61gdN1sap0rril5aZ/Td69JovanpU13TRsfrWufzWWZ3bEnOszVzvQu0NLbKq88avy5f0jh2c/VcHl+3IY9lXWpnrfvU6z91ruSzyM+4+rxKc3Mly5o7XoPEa80V9Y/60Pd/1z+p9rX6Le91ldXlSx7TnGPiNmi++ZjK1fzUMZ/PPMAeESTuRF2gzpFl6HNuPPzw1KIk+uyHTy0nFzMf0+fRA6iW5bqdXwuig1R9rwvqTRoFbvXBpWP5cPMD1AGhztdjfrDpfa6u0cN0ydqH34j63WXNjUH3gLM6r07xS7/81LFelaF3//caqsftybnUPUh13HNcx8XHHCSqvEyX7c9yco66DfX8qI8uoTLVH1m22ql7rt5jbkceV1t1neofleHPzpOyP33M9fv6VW+O00j2T5brtjud26r0Kj/b6/zm+nOc5q6pK0vps22S7avndU5tdJ3uj5Fsn+uvwWH3S6Lq1jH3vdqs71m2vud/JuA2mo7V8VuSm/13/ezPT59zDfJmP1/dhryuaaPjda3zGte9Ttn4z12/zvkPJ+q5pLHXGHfnzunfU3huZf2q86bu9SV+7mlM8nOmWTtXPOb1uVaP12etz3evrp4R9U9dB/JcjkFH/Ta6D2Wu/DrHfK9r/DKdyxidB/aGIHEnrvGw8kPGmw/RMS1IDtK8WI7q8+LVLYZ1IbRaltsxWgBH5dyEUeBWH1w6lg83b7z08sbIeUSf68bJD9da1+hheqmuX3OTkcfnxuDUB5jGX+Ot9+58x/WrDs3NrC/P5YZJPLdyoy010FA6zUlff5YhqqP2S/ZJd/4aVH5t69w9J75mt03vTqvPc+2s96br11+TzOPqp1q/6/W4JJWrctT3Gj9v1pXH/a3ylNdjUNvo8n1d5v7o6u3Kyv7o1PNqu+r1GMzlVxvVT07r+vUHHL4+fR8FiZl3ZC6djuU4reW1yGuN16T6B1s65nWq25DXNW10vK51Pn/KJr/j/s1faJfU+0vjVOeYndu/a6jO27zX18g/UKjz4tS5Mnqu1eOeGypbdVxrrnicpZsXnezPuftQciyqOsfm1rA154G9IEjciaUHwBwtUF70/FDyw6Ye9yI6eqCoLOXrHjQusy5sKqt7gI8WwLqg1nPSnbuEH0TdSw8vB3x+cClPPtz8wOxefrj5AVpfNUjs2rL2AemHS+3rOd28mhuDUx5gSus/gPCx0dxKWb/Se2Ot7zl3axt0Tm3Tu+eyPteHex5zOp9TmXXzZmqX6h3dA+Y+ynLXUrm+j+q11+9KU++H7Du9d+NrKsdjkX2Sx51W5WZd2U599zV7XrmPVFbe/z6uspRXahtd1qjtKjP7wbqy1Ae1j1K9rlq28rvtnTpXsh/cFrcrg0Sn07m5ccpxqed0rI7TGv7DML1yk5/Hu5fWsLk0Xh+X1rq5Mk4JBjRu6ruuH3TMfzjhudb1pcvw97Smfz2OozLmqFzNB7VNdeW8q9+VJuepZNvn5pCsuZZOjmU+/9bMFT83u5fHefTsdV3XmCs57uqn2o86JkqnPtS771n3Z5aRea0r1+oc85xRHZnOVJfnRXce2AuCxB245CGUcpHLxVDlr9nIq/7R5tm0qNU0tSy9jxbAuWudy3epawWJSjP6100zj16/+4UXjg8/b5ycpqbTa+3DcE59UIn6Mh+E1qW1pQdc0j+Q5Lng8RttrlPWr/d8+Oq7y6htUHneGCqdqN76cK9t0WcdUxq1q5ab6dUWp880SeUozej65qjNHpN6P4y+u731WrMsfa+Urt7no+MqI9cJ90k3DzK/PntM9F3tyXKVv7ZxTR/r2moaleUxTTl/kvKqDPenqL05djo3l7/OLbXB7XJeX6N+UXSb9F2/OCpN1uExVRrPxVqH6Vg3fmt4jalrS93Ye53SS2vd3Ka9Wx/16tY6r5n50jqcbZmTfe9+0F/Ndd9VOt791V31e45/WtO/SpPz5RSqV+3SmHvc3ZbRd80Hfa9zL8vS92rNtXRyvDX+eW5prqwJEus8+KfP/7MHnrWXzhXff+ob9ZPGXP2h+6ubK0qTeVRG7e/K5XbndLyrx2NZ6fjc8xHYC4LEHdCCUTdD58hFTp+1AOpdi+BSkKhFbm0b1N65BbBSXblYj+qpbdoTP8T0cNODsUtzG/LhdMpDR/m8OanqZmVE+V1314a5cly/0noD5vSeH6LP+SBXntpupVMa/RVKtyPnmMt9/Of/4fE986tez8087rpHfaprynat5XKzT1Rvtlffs2yl9XmdU99lXl/zSJZtuqale61rq2V+fV4bJHos1vadri/HoOv37BO3Oa+/pldZSqP54rFfQ3V0feJrchofd13qG3ny//Grx7x1TnVtTjqX/fmoyPtA/TU3X5VGfaxxUbrs31xr1o53jmM359bo5orakeOZ16jvSuvzOa+dtmtrehTniu8/9Y++136rfE/6r4i779Vvnjtr+to0Zp5jrsNt8tjrvebL9MBeESTugBaYfJCcKxc5fdYi5Y1zPni8SHkh1Xsulmv4gXvNhU5lzS3ut2mvQeJt0VitGXvPQ73ncT9UbW4++QGb//CNjutd81rnluavys00rq9u2Cs/7FVHts3tz7Rr1HaI6td1uB16zw2x26AgV5ubbG9XXqplLR3P653r18yvz2qXfjXLPOojl6N2uuxT73GP/zXWSFF7s79Pcc64K8/cPFMfet2u53SsG6eHneZKzvWlfsi5VufsOWOWzs3f3Zu6jpu+1x92um71lftF/aQxq+lEfeNnhtelPDe6D4FHFUEiAAAAAGBCkAgAAAAAmBAkAgAAAAAmBIkAAAAAgAlBIgAAAABgQpAIAAAAAJgQJAIAAAAAJgSJAAAAAIAJQSIAAAAAYEKQCAAAAACYECQCAAAAACYEiQAAAACACUEiAAAAAGBCkLhjj333Gw+fefa3Dx/44JPt+U6XR59/7ZnfOHzn6x+7L+0ayvvc8184vONn3t2eX0P1qv5TrsNU77lttze95e3HPtG7yvvoU59s0+n4qI3q12d+/XPHMuo5HXv2ud859tMplKeWpzaM2ndNqlfXo+vK4x6rbrzn+kd07pK2d/lrv4/afaq1bVWaS67pmtTmnD9zYyHqq49/4tMX3TuXOnVOMP/upzRrr0lt8zpXz6m+NevobfZ/pT6+7edfZ6kfME/z89TnZR2/uTE49x69dFyVv3umd66xrwFuAkHizmnR0kNv7YKnxaemP/chqbK06D3xoY+d1Ibq3EVblEd1X7L5UP0qQ++ivuj6Y+4hoXbkZnEtlXdK27Ot3XnLB5IsPXRrG5THY5LXpj5R32jsR5+znJTXqnRdO1I3T2s7a79nuzONyurqMLVHZXt8146L0qxJdyn3b9d2c9vth374x+77XrnMmm8LGgPVleMiozHNtHpn/vWUZk06GZW51Hd76f+OylyTzlRvN65qu64h05quu1s/R9eqa1SZ3TksU39rjHxPLdE41PGrY+B7UGm7e3SNS8bV8/TDH3l6dq5ZvSZ9r/MvrSkT2AJB4g4sLRBz6qKmhc4PalOaushoIZ37lcFt0ru+q8zRQuUF2m3SZ21gld7HOlleLWMtt2+Oys6NnurUtdeHVH1I5PdaRnVq+5VWeZR3bvyV7k1vedsDZSuPrsNlWDfW3bn6IPV3j9vPPf7+47v7t6bvqHzPPeXLa6y68jK/Puf1jjh9V+bceGZdc5RmTbpLaUyyv69FfXJTvyaqT+uY137WOaVRmzId86+nNEvpVG8X5Kj/fK935/2HTC7jtvpfaWvb1sr+la6/lMZ94WOq3/dFvTa9q+2+9krl13qxnvp76Q81qzp+GgMdz/mW831prnZjeO64Ko/vJdWvdrhdI9ne7vtcWuAmESTuVF0YtBAtLTxapPRw03seV94syw/B0cKTi14eV/3dgz8fqqLP3mzoe6a1en0qQwt7rXOJ8quc+lBZKx8K9SGR37N9arvydn1ar1f567i5j7IfdSzT+bp0fG3f1HJVXpaptrjNKqt7kGa9eVx5a9+J+6g7Xq8xdfV3fVWvfdTu7pzb5vP5vdalz/UaltS2XmLU72ud2v7u/r4G9WuOe/az6lO9OSYV82895+/apP7zva50tT+VR/3j67Lb7P+U7df32l+d0TUpb5alOpXOx2pbfF5/g2YpmMlyL/XRj/3qwS997tJc4otf/NKrpd97vfji7x9+4Ad/tE17CZWpskd1jMZpDc0Lj53GR++eG934WF3vPG+zbB3TL4EqP/POjXE3z5VWebp8XTvVNl9LV0+9F4CbRJC4I1oEtIhowRk9JLXQjX4Z0PluMcmHpOjzaNHpFr2ksuqC64eq2uxF/FpBor7XzYSOqQ2jsqtsX3e+W7iVVsf9INH3PF/7elSHxy2PKU3Xxx4nHde769b3rm+SzqnMTOOxdptcvo5nv+p4Xlv1nvc+8cC1ddeVx2p/ddwHylPPuZx67dnurLfmr3Tdum+U1nmy/frsc0nHM53V/JfyWHVt79R7cC3lUd5rtr3Kvsx+yuNJx7prNObf/dcpmb9rk65fdfoXQa9TpjxeL5bav3X/O7/aqPw65va73S5b7b3286/2n97r9SbVozK7c5f6iZ985+GPvva1TQK4mwoS7bOf/a1jPTXg9dxTYNTNi47Hy2Ppe+mtP/Wu4/zM8avj2dEYdvXUOVnnoXXzqFIdtTzLOanvo3qWzgFbI0jcCS86Wvy0qIwekv5cFw0tjNr8dYuJ06tcvXcLl/O7jjm1LpXlh6rocwaJdUHW93p9KkMLu/Pr3cfzu+h6umsYUR1uS3fe1C6Vnd+z3bkx79qvNmX6OW6/29alMf3ppvrGdVdLZbiunDcqqz5Iddx1KZ/7Qu/5XWpfOZ2O67PHMcvP87V+X4PPr+kXp7U6JrWN+T3b0qXN45nOav5L+Xp1DSo7r6PS+VPmv6nsrt+2dEo/6XqZf98oz8cznc1di7gtep50Ze/1/r+N55/z5tiK2pD1Wnftd8kvvO+Jw8svv7x5kDii/tYY6L07N/pDAHHf5xjoc46RyqhzWzzHPL51DLtxrfPQx7r8HafN9om+Z7lON1LbANwUgsQd8OKVC0ldnLww+rw++2Hn/KPFRHmVVg/C+oAU1eUASOeUpi5SyXWoXOV71//0vmMelSP6XINEL6i+jnp9qlcLu9qg875WX5vzS54X5eke8uY/Tc8yOipTabI/nSfbp+9d+90HLk98vXnMfVTHQboHnMuu1yXZhhFflzh9rUfn1If6k1mlcZ/5r8Eora/D/TN3rd01dn1hHsNah/LUtFLL6tLr/Nr8o7Q6nums5r9U9qnHu/av+NzoukaUXvPl1HxrqS/q3FySbdFn5t+DaXU801nm79YMXb/ao3Z182lP97/Ly3PZfn2vefXZ5Tu/5lTmMeVVWl1fbZPUvtC7+0vn9FnvTq+6Vaa/b81BnX5h1C+NPu5f6vQLYabzS591zOltFCS6PL3ru3/VrPXWXyRP/aux2afqx7ouVBo3pc1x8RjomMYux0ef6/1QdWPYHdP3Og89h1SP2ta12VSmy6759N3trPM9zZ0DtkaQuANaeLyYnEJ5tICIFhz9tYvRQ1IL1lYLjRY5L95uyyVBosvQMedx2qzL9acsJ4+rzqU+znbW77VcX4fTjtpV00m9vqTy6wNuqe6q9q0pn49nPXmdOudx0zl91nu2WXn12e3J8vWnwLL2rxK5Pcqr9uiYyvb8qelT9oHy1z7N66p0PPOP0up4prOa/1LZ7/qu8t03mU51dsdHXK43Wl2a25D9nZ+zH5h/945nOsv86odus+prc5rss+zPrPs2+v+XPvxUe41LlEftctvOff7pOnLN1bvKU7n6nv3Tfb8J9a9u1gAu/3vGfHW/Fp4bJCqt8nSvUwLF7G/1Y46Lzmn++LvSKG2da3NjUMez0+Xvjum7juexS6lMtU9zzP8N5Gjuiubh6BywNYLEnfCDqT5EO3XR0kKjhbFbTLQgKc+Wi0w+VP3APjVIzIVdn1WGHwwuU+fys+tPOt49VNYs9tnO+t3l6gHmcVBbnFbn1S6fW5LXoHK6NHKvH9523zXVa1lTt/KI+zz72+XomDabeV3mOnRO6nzyNTgY6dLUdpvKVlrNY51Xfn1X+9z/VZal9Pf66f4xr3x97pO8TpXl42t113Iu9UGOsfs761B7Twn2PCZ1HPZA11XH1uOT42LMvwdl/fVe7q5f6X1M59XmzOP2Zbtsy/4Xl1+vsVPLuPT5V/svr7U7r/pH82IrNbBzUOiArqoBXp47N0h0nZmvO7Yk+9PjM8dzKsvIMfDcm1PHvxvD0THJY5fQNastGRSqTtUxmqPdvAZuCkHizmgh0ILQLUxaTLoF03Ix8YNutEgm15mL6lpqZz5URZ8vCRLdHufROZWpd+Xt+saUX+XUPnK7dD6Pp2xn/T4qN9X8o2Nzbcl+GB1TeXN9UPvWlM/Hs0yV1Y2tZDlKpyA5x8bHfZ1uV9eGUbt13Hzec6Brk3VlVW5Xdy6N0ul4V0+29RpG4677XfWoP3XNes98ney7Ndd+DW5rjs8St03X150X5t/y/OvmTnf9Oq90Sp/nVU53fZJlKN0W/Z/c71065d/i+Vf7z3lVnr4rn67b9fpanf+m6K95+q+Q5mefd1CXr2sGiT7fvc4NErtz6uvRWNncGMyVb11+HxPPm/qc9tzw+VOoXNdR7w997/LY3PwFtkSQuENaDLQoeGHw91FgYV549N+TaGHRgqTjWpS6RUbnu+PixdAPyjmZVvS5Bom54Om72+q663elcftdvv70balNSuuNUB7Xd+Wtx5Pq80Ju+q5zXbm+Vp3Td4+T272mTnE+0X8TpHr0p+Puj9o3bmMtx2p6y3mgNuWDVOfyWiSvX5RHm7SazrJd/iw59snlPPGPP3p8z/zV6JrMbevqGZmbR+Zr6M5d0+j68rrWtFd9qLRzfbUH6tOcW/rM/HuQr6E7Z6q7boqX2lvP32b/13LUJrXN7fP3UXrzNZ36/Hv7Ox+/r//0rrpG46N82S83xb/afeUrv3cM8vzfIspSgOd0sjZIdH0u45xfDTseJz3r1t4zSqf55zLmxqC7H6ou/6hMzz+dr+dE9Wm+ZPs6KkdlqF31/qvf09w5YGsEiTumBcWL5OiBlUaLydxDcrTw6XjWqYVNC2+3EPqh6rbq8+iXRKtt1flsi77XTYHy1GOV2+l/gKG2J9uRdepz7etsd3f9mT/pmMvK+kaU3n2RDzjl7f7kflSv1b7tZD1K575yPXqvZSjPmk2iy/N3l5m6saz53Ydz5vpBRvWvpfxLdYj7Rm3y/Fkr+yuPq2/UR6I/NFDZo2tRne6TU+tPa6/3UjkuzL8x5V+qI+9lH9P11f5LapPP5/W6rXneebbu/0p53c9r5vTomrtrEfdt3rtpVOfomnxOunOXUmCmAM0vBW0+V/8xmXw5mByl8S+SDgLry0FirT9fpwSO7r9u3uqYf0lUOo2Bztdn79wYdOVWc/krlaO52qVXO/NXZllTf52ro7m7dA7YGkHizmgh0ILgB5X/dTl/n1ssRouJFrf6QJ5b+HRMZelzbY/4nLksHRd9ziAx05qOu62uY5TWtLBLd050zm3UQz8XblH5edwPCr13/TZXn9tc+091ZF9Z18+d+oBReXXs3GZ/r7o21PpHDzKlU/pap9Kr71x3118+p7TKr3d9r3XLKdelNEo7KmvOOXmS8ndtSjl/R/06p/aF+1rjoHNO53rqeGZ/e+y7+b/E/Zx1bmU0LjrG/PsG5e/alNw36rfU9ZF4HnXlqq231f+Sc1xu4vmnduY963PdfeD2ddc0l+9a/GtfDcpqAKfP+sVRr7VBYk3zu194of01spbj8tdQH6mv1efud+8VPMZJx3XeeVzOaF5JHc+O8kt3rlJ5Gtes3/zfw+qzx99tn1uD61wdzd2lc8DWCBJ3QIvdmoVFtGA4reRCN1pMVF63idCCVhfSWr7puNPMLdDmh2nmS8rvtrrdaoveu/pHVI7ao8+jusxtUl/or67qfS5PXfQrt9/1y+jBk2OcnF7t8DGXO+pDX7O/Z14ZzaF6PVlGzhGV77T67PL1WWndrjp/VF7yMddX1fz1upw/r0dp6vXN1bGk1lfp/FKaHCe1a2mDUql859W11X7p+Jr1nhsVUz/Va+3ktZ3TdnG7u/LneD7VMnRcbWD+feOaunPWjZv6rK4jWW+99tvsf5XrY7VvK7fFXI/P+ZozT15bqu0fqflH+bpxwP001h6jpf5SGv1Kp3FVupwXGneVNRrbTs4V1alx7NJ1PPdTzlvL+ev7RO2veetcrfO66uY1cBMIEh8io4fkWsqfC+mIF+9ctKtugfQxL3xaZLt0W8o2XNJXDxNv5Lox0BiNNm7Kpz7UP2HvMfW/2uYHvx/mNa/qqpstpVP6fPB3bcoxXDNfL6Hy19ShdroPbmouX5v7vzt3barH80KfR/3G/Fs3/y6h8vfQ/5dSmar7ttZ0z5/uHO7dN7lv0PtckOh5KXVcR/PqpqjuNfXr2vJ+sDpX5+bubc9rPNoIEgEAAAAAE4JEAAAAAMCEIBEAAAAAMCFIBAAAAABMCBIBAAAAABOCRAAAAADAhCARAAAAADAhSAQAAAAATAgSAQAAAAATgkQAAAAAwIQgEQAAAAAwIUgEAAAAAEwIEvFQ+PBHnj686S1vb8+942feffjMs799eOy739ieBwAAAPANBIk7pwDn1575jcN3vv6x9nz66FOfPHzgg0+25xQgPfPrn2sDKR179rnfOTz3/BdOojy1PLVB8thN0HWP6lXfqQ/Vl91564JJlVnz6Zo//olPt2Oi9F1Aeso42tp2P4x87afOpbk+U1mj+0Pm5tAadf7M3XNrXJofAADgXASJO6eNojaeazavc5vgczecp26cVb7au1SPyuyCzHMtXZ828EvXUTf5Uq/HQYh+uewCvlFwo7J1/Id++MeO5c0FK0nplvpJddUAXnWojfV4chtU9jl/SKDr0fV29fu8gununDh/vR45Zb5mWve/+nv0uStDcq4rXdfmlHPF5ee41mvQuVrGXHtE7alzEgAAYGsEiTuhTaA2g3UTuSQ3mdpQ5iY1v9cNa3Vq/blxndtQK92b3vK2B8pWHm2sr7n51bVqo/5zj7//vrrmZP/pc15Xluvgofaxz3dlm86rbLVNQaLK12eXeW6QVoNHX7/61d9dR+oCmrWyrdl3letW+ntz4P55V9umz/X6lmT7Vb7mt/rXc0DvbqPPz823bNNoLlgtz+Prvhedq0Giy9cx94vHo7vGOXPtAwAAuARB4k7UDeU5tAHNjXN+z/K1odUmMze1Oq9NZ93458bWug20jmU6b3x1/BrXtobqUZ3ZrjV0jXUDrnLmfgWTpV/4kvoh+zupjAw41uj6VNeRdeTYZR0eG8+NNZxH112vo469qGzp2ik5N7vvS0bp3U61KY8rbR0/cTnd8bVBYq1Tx5Q3y9N3/bKrcpVGdfrzqM1zlHaufQAAAJcgSNyJ0WY6N6N5TAGKN5XabOaGVHTOG2Cl0fc8r3O52ffGtm5UczNrow2q0qpMHde76x5d223R9dRrErV3tPFe2sirvOxfUx6V2Z0TlZdjrO85LtLNga5P3f/Om2OXZfhaPD5LlC7bW8/X8rKv8nNNn8fUzrXtkUyf7eu8571PPDC3lafOgTymtF1ZyXNFaZ1P7z5ex8jld2MHAACwJwSJO+GNozacuaHV8W6D642oj4k2oDqX33NTm798qTxt1LVh13fXk+nnuH5v+Ls0pl9QttwU53W6n9yPtY+6/hRfR5cnz9d8VvteMujQZ+XXr5M1XaU61lxL5To8pln/uUGi25LldrJf9TnHW21wOyTb4mPZf66zyvmb6U3t81xTep/Xe36XLr++u51dn+f5vAYd69pY+8H5sxwfd/5TqZ0uBwAA4FoIEnciN5TaQHoT2W3o83zSMaVzHm0ina9uWLW5zI2/znfBU93QSreBttw8+5jLrhtcWQo+1vI1Z/u9+c5jupauTrVbG3yl90Zf+bKtVZbjvs8ys+/8uUvXyfGQuX7ydda2PfGhj03157i4r9a0Q3WPxrpSWvWd6s321jKyXyz7patTn3P+1n7UZ9X91p9617Fu/zeJbovyuk5fv+pxfpfhNF0bunZb9qk/j8ZDTunTtWkBAACuhSBxJ3IT3G2qtcnU5lPHdK5ucEWbT6Xtvmf5+l43vKNyazqZ27hmMOJjS3Vfw2jjr+/apKtOfc5fepLOq43ug3oNo/JN15NBgfk69e7r1nvNn2nqcdXp8a/nkvJmOtenz1mGr2XUjqR8o7HuqD5dd5atvO7X/FzzOU9Xpz7nHMr0+TnHSXn0We9ZpsrQ5zoPVIZ+6RUFdHUsO+5Tle++ttpmle80+lyvUfJapOsLAACArREk7oQ2kg5M6iY2N4pzm8a6wczvSq/y8x9jUVlOq/MqNzfAc7INKqdLI/eu423DzfK1ZHBQz6le/0qY/WPuGwUGvi6ly7Lmyk8uy9cqmbeOUaZRXp2v46v0DkYyT1XT6bv7Oc+5PV07KrW5tmeO+7qW7frrr4yW/dLVWfu160fX3Y2R8qtMnZPaBh3T/PAfInRpVJ/7M6lspRWV4XwqR3W6zZm/GwMfy/br8yn9DwAAcA0EiTuhjaQ2wdoM1g1kbja1yew2qlI3zvm9brI7Nf/o2NzGNa9jdEzlja7hXN0G23Qsg9babrdn7rrmyhcd13n9Lxh0rf6rhTqn8tz3XX9Wtb+UZ01/qVy1QW31d+fTu65f73V+zZnrk8rlZrDlc8qvcupxU7vcnhyvlHkzva+tk/2hdPpDknrtOu7y9K5jHk/nlTyf3F6967uvNduhtqvuzF/Lq+Muo76QvAYAAIBrIkjcibop1ebRG0hvOrt/pTEpvTee5o2kynCg4vQqJwMAb/Jdr9LqfLepT84n+m/CVI/+ARFfT7220Wb7Em5D7RvV4w2109RARW3V9+wPfa6b8o6vQ+/K4372fxunY6rb1690HhOd0/Ff+vBTbdlruCzJevxd9Xkca5CyRvZJdz6pPqdVPdkWtUH9rjarzJq39stSnZlesu5RGrdhVLbSun/8WWqf21IbdS7vuSxfavt03XVuntL/AAAA10KQuBN1A6nvdXM4t2FUem9evQnPTWjdsDpP1mk65rKcf47SOyBQ+apH9Slv98vNqF7R8dG5OQ4Afe2qQ+2vm26ny36yuf6t5ae85uxnpa3Xr2vz57l+ENe5NkjwNed1uwzXm/Ut1S9zfZKULvtU6VWv3vNcTWfZL2tk+hxTH9O7jumc86g/1gSJLs/fXWZS+2s5Sqs2uN7aBn9XPqXL/K5TcyePd/V0fG1d3wIAAJyKIHEHvEFc2txpEyrd8dyM5vEuvbjOugFWG7TRrLqNcicDJn3vNrkqq2uX0ijtOZtclad26t3XMFdO1zddW21ujFynPiuvg0R917VmmUrrvszPVQY0+qVzbhxUjs9n+9xmz43a7/qc3zs6P+oTc1tr2zyeNb/T17aM+qIzSq9j6odRne6D7n7xOaVVfr2P6sm5ojS175WntsHl+3tSXrcpy8t6unySc1NtzvsPAADgHASJO+ANojZ2eveGf41uA2sqTxvMLp/UTamMNrGqJ/PW9LoGH3O5uXmtZXX1nLvBVVkKAPxXPF1/l3bO3IZ8dC3WXb8Dk8yT6XROabKc7OdaV47naJzMdWe67HdfT50/2b5ROyqVOSpnlNfX4vZ0ZVRK4zbVvvP16pzKcfn67La4fF97HWuVn3zMdVajuaL6unOq3+Wmbp64/V29SeXl3FRZBIkAAOBSBIm3bCn4eJSMNtFL9N9qZsAwt7Gvsr7R5l7OGSeVveZ6sr0OZJYondJ37dG5LgDNQEpG13rXuP9O6QtRPo1p/jehmks65n5Rmm5M5ubKqUZ1nELt8TWcMkcBAAA6BIkAAAAAgAlBIgAAAABgQpAIAAAAAJgQJAIAAAAAJgSJAAAAAIAJQSIAAAAAYEKQCAAAAACYECQCAAAAACYEiQAAAACACUEiAAAAAGBCkAgAAAAAmBAkAgAAAAAmBIkAAAAAgAlBIgAAAABgQpAIAAAAAJgQJAIAAAAAJgSJAAAAAIAJQSIAAAAAYEKQCAAAAACYECQCAAAAACYEiQAAAACACUEiAAAAAGBCkAgAAAAAmBAkAgAAAAAmBIkAAAAAgAlBIgAAAABgQpAIAAAAAJgQJAIAAAAAJgSJAAAAAIAJQSIAAAAAYEKQCAAAAACYECQCAAAAACYEiQB24wMffPLw0ac+2Z4DAADAzSBI3JHvfP1jh1975jeOG+XufHrsu994eObXP3d401vePh3TZx3TuUx7G/bSFvXls8/9zn39hP0iSESnrieaJ1ortWbWtGupjOee/8LhHT/z7vY8AACPMoLEHXHg9573PnEMbLSBSbkp6oJEbXYu3Thdizb6t73ZV9+4Hwk8riv7do3PPPvb0wbffxjSpZuzNLc1xqfMf7ej+0MZldUdt1OvX5iD5zslSPTYzAV/TqMyc24CAIB7CBJ3pAZ5c0FfFyRq49RtRP0n5tUpG+o5amdX/hpbbZzVP9r8qXx/nts0Yh9Gc3gN5TtlTuve0byQbm523DbnzftPRu3XsXOvC8tBYq5BCv6U/od++MfuK8N0TmlUhr6fOm8AAHgUECTuiDYr3rh037WJ0WZGGyIHie/6n9433OTquNLVDZV0x67ltjdd7qdsg/rMm8ea3j76sV89+KXPXZo1vvjFL11cxiV+4X1PHF5++eXDiy/+/uEHfvBH2zRLfuIn33n4o6997Xgdup4uzSUcuHfztrNmPp0675ReRufy3qs0jy4NEj/72d869q/GSmOW5/bq1Lnta/RLc0pza5Su9kX3B1Dq9w9/5On7jtVxVz6vfz4mDhB1Po9rbE6ZOwAAPOwIEnfCm2ZvTLVZ0abFmyBtbN76U+86Hssg0ZvU+l3v/pP3mwwSfR3dJmxu030trr+7NrVpKVB0cHRJgLXnIFHXp+PdRr2ja7nJIGYUZK1xykZfc0DzRO+eMxl0dLJdmT/LHbVfx7rjHqstAvEtbBUkylxfqJ/zl0Tdy3NjPVrzfP/Lxz/x6QfOa0xdR5X5u/MAADxMCBJ3QhsQbUT1ru+5idGmRRukuSBRx3KDk5soldltmOY2WecalasNsq9tK+oLbeJyM67P2R71i/pZ707zsJkLEkUbfL3ODf7Upxk8nUJzQLpza8zNobl25eZec0Fzwsd0z+jeyTlR56s+57zyXOvqGsn8d9W5fwDiP3yZCxLnqL8zSPQYdv0sOd4e37ouaTxqUOhx7cZKcyDLBQDgYUaQuAPexGhz442p3v3ZGyT9Nzba6GgzqzwZJNZNbH7X57pB6o5dyhusLgBTW3w9W1DZ6r9at+qt1+n+7jaCp9CG2YGYA7N81Y20N9h+1ys3zUvnu422f6nRu893ry4gzHou+dVTfZ59rHfP05q2Gm3KPUZ1Ez+nG+uO577vH9fl9nbtV55so/Ipj++/UTrTse54x+OiMfUxj+3awF5lKK3nwz99/p8dv9f89Ze+rFP8Bwp6qSzNd71yvuQ80qubS93cPYX6OYPEtTSG3bpgGpNuXdLxU+YeAAAPG4LEHdAmRb8aamOqz9qY1ABQ53Tcm9dM401tbnZy8+P8uXnujl3CbfDGSvX7T/VHlP57v/9Hju/d+TWU9+P/5FPDa1E7RufUB6duBHNTrc2xj58SJNaXyxmddyDabbTdHr37fPcaBRdu9+j8GpqP2ceeC6ONuThNN6am8VG6teMzN9amc0r3pre87YEgsWtDUj6Xo3xbBYkex/wlOMe5pu+M5pJenm85l/Pl892c9ktzW21z0Fhfde53c/cU6mf9YYLHwcHfCAEeAACXIUjcAf0jDP6rpNpk5kbTm2lvmL351gbIm9y6Yc1z+q68dfPcHbuEypvbnOl6lKYe35rqvcZ1atPrV/dLSfIGfRQkeqPvMh0M+Lw36Rn0KW230e6CB2/uM8gYuUaQqHHNACjnaaab401//nU+laM/PPH3JaeMdb1Hqjpf6zUqn/LXuV7TmY51x0dyDjkYqwGW549fnjfOr/Tv+tmfn/JqfPWuc55LOe51LnhuudwMClV3nb/Zpjr3urm7RgaDubbo+Gisu7FR37ucJaeMEwAADyuCxJ3wxvqJD33suEnxXy3VpsUb59x8102u3pVOm9S6gdKxuqHqjp3LdavdBInLQaKPe1PuDXWXL491G+1LgkSXrdfSNc1RH4u/5zzNdB3lqxvzDAxy/me+ziljXe+fvGfWtL+2cY28xiUeQ41Rfs40GrN85Xl91jxxkCj6rGNZZs4Rveu7juu80uk1mo+ee92rzr1zg0TTOGXgt9T/5/ySqPVp7VwDAOBhR5C4E96Y1kBKG0tvLnPzWje5omPaHGmTlOV0AWF37Fxqn9okD2uQaLkxzk156jbX3fG6Ufd5l+uNtV7KUzfa3tTrdUqQqLL0cjBQz5/Cc05j72M5T+sxz2XNW23I6+Ze6hxS3jW/KJ4y1t39o/xq03ve+8R9AUlndP/ouK8x6Vh3fMRjq7HW+6ljpTmkvKMg0XMpy/W88THPdc/HnG+aQ55HOtbNs1TnbpdmjsapBomjsa5p19C4ae7lnAUA4FFGkLgT3kRnIKXNjjbM3sg6jTYy3SbX57XZyQ1Ut6EdbXJP3cwmtethDxKTNs/eIHuD3b28yda7XktBYn35fG7S6yuDRG/I8+WNv86pjHM26h2NaRfUqc+7IHFpDow2+Dquv5adx6pTxrq7f0Tt0/0zdw/4Wro0yt8d17G5MjsOwvTyHOjSdTSXNAdGQaLSjH4J9Pm5Oa22zc1Ht3dUh16+D9ao8+LcIFFjUMfXY74UICodvzQCAB4VBIk7UTfR2uBo8+3vVbfJ1cbHGyd99ubdm6CqbrJc59JmaeRRCxLTNYNEv+tVf3nJenTud7/wwvFzBok1nV76rGOZ5lIab82jOl88l/O45qk22DWtjmvOeB7r3Rv8ufnUOWWsVWbeP26zrkfBqOrV5y4oULtGwYLmuNpRj58z/zPYPyWgEs2hpSBRahBX51EGqsqrcvTK9uR81Wuu/HxdGiR6HevMzRsd9/iqzLWBn8aPIBEA8KggSNwJb1K1EfHnbrNp2qh4c+30dYOs/N6c1nPdsboRO5U39dpk103byNw1XoPKr9e5V95snxoQ3Ab1q8avBn3WbeJzrDXXtOHW8Z97/P33bf49Xvrvcl1OjqHrPocDNdWnue45q3PdtWQ7nV/1u5zK5/U520lwcZ7s/5w/OU8yvaxdx7q5BQAA7iFI3AltUrRZ0SZTuo2L03jjqc/+X0iMNq3SlTc6lhuxU3nDfW6QuQVdT73OvboLQaLn4CV96o2/gzLNFwdq0s1ljeMlcxMYuUtrBAAAN4UgEQAAAAAwIUgEAAAAAEwIEgEAAAAAE4JEAAAAAMCEIBEAAAAAMCFIBAAAAABMCBIBAAAAABOCRAAAAADAhCARAAAAADAhSAQAAAAATAgSAQAAAAATgkQAAAAAwIQgEQAAAAAwIUgEAAAAAEwIEgEAAAAAE4JEAAAAAMCEIBEAAAAAMCFIBAAAAABMCBIBAAAAABOCRAAAAADAhCARAAAAADAhSAQAAAAATAgSAQAAAAATgkQAAAAAwIQgEQAAAAAwIUgEAAAAAEwIEnfmL/2V1x6+9d/5jsO3/4X/6PAdf+mvAgAA4BHzF7/jPz18y7f+xcNffmVf2O0Xga0RJO7Ea//a3zh887f8hXahAAAAwKPpm7/l24/7xG7/CGyFIHEnCBABAADQ0a+K3f4R2ApB4g7or5h2CwIAAAAg/NVT3CSCxB3Qf4PYLQYAAACA8GsibhJB4g7wj9QAAABgzr/7bf9eu48EtkCQuAPdQgAAAACkbh8JbIEgcQe6RQAAAABI3T4S2AJB4g50iwAAAMDeve71f+vw2GM/dB8d69Lict0+EtgCQeIOdIsAAADAnikY/Pznv9QiUNxGt48EtkCQuAPdIgAAALBH3/+GHzk888znpoCwnvdxpVHaeh7n6/aRwBYIEnegWwRO877DU5//zOHt7bnzvf1XvnR46qf7cwAA4NGk4O+Xf/lXDv/j33/PMRh873t/6T46pnNKo7RdGXO+5xc/PwWacmf2Ij/9mcPnf/Opw/d0566k20cCWyBI3IFuETjNTJD4fU8dPndmAEmQCAAAKgVu/oXwHe98/IEgUcd0TmmUNvMu0d7j/kBLe5wvHT73i2+9L90uESTiIUKQuAPdInAagkQAAHAzMkicc3KQOLNn+Z7vI0iUbh8JbIEgcQe6ReA094LEp/Snb68sxnIvuLv3p2/3HdMC/JuvpP1NH39lMT4uyq9+j8WNIBEAAFTaL2wRJB7/mumvvK89N1Eg5j3L5z9/+OD3vXr8uL956vDBwV4o9zPHeh4I5t56+OC0N7r/l8v7//prBrG5z3qlLb+YQeK4vEt0+0hgCwSJO9AtAqcpC2D+SVb9U7nj928sqse/1jGdv7eguRyCRAAAUCnouZUgsexh7gWMr+5hXv0D72nfkmmVbipXe6Yo41XH/dB9aV4tK+t4RQaY9+d5NSiMc9/YQ92/v7pEt48EtkCQuAPdInAaLWY1EMxFs5yLPz2rC7IWNf9pF0EiAACobitIfPB8BF9lfyPf2NNEYHhfwGh94Ki/4pr7ovvTNnmmP6TXuXu/IKZr/JrY7SOBLRAk7kC3CJxGixFBIgAA2J4Cni2CxAf2LMX5QeK9vPrc7236IFHODxLH13GJbh8JbIEgcQe6ReA0BIkAAOBmbBYkvkJ7j+k/mTnSHueVY9qrHPc0EZjlXwU9not9S0376vn7/5vCbzjWO+2H7tV53A9d8NdN67n7g83zdPtIYAsEiTvQLQKnmQkSvWh5sdM5gkQAAHCmLYNEOe5NjgHdPfftRY5Bm8+VIPC+f5jvwT1M7nEe9I39kmS6+9uTQearAezRK23hH67BQ4QgcQe6RQAAAGCPFPRsGSSepfwh+IMU0JW/HnoHdftIYAsEiTvQLQIAAAB7pMDvH/yDD7TnktLsIUj0L4HX+jXvNnX7SGALBIk70C0CAAAAe/TjP/7OY9C1xppgEut1+0hgCwSJO9AtAgAAAHv11/+L//r410nnKE2XF+fr9pHAFggSd6BbBAAAAIDU7SOBLRAk7kC3CAAAAACp20cCWyBI3IFuEQAAAABSt48EtkCQuAPdIgAAAACkbh8JbIEgcQe6RQAAAABI3T4S2AJB4g50iwAAAACQun0ksAWCxB3oFgEAAAAgdftIYAsEiTvQLQIAAABA6vaRwBYIEnfgNa95DQAAADCr20cCWyBI3IFuEQAAAABSt48EtkCQuAPdIgAAAACkbh8JbIEgcQe6RQAAAABI3T4S2AJB4g50iwAAAACQun0ksAWCxB3oFgEAAAAgdftIYAsEiTvQLQIAAABA6vaRwBYIEnegWwQAAACA1O0jgS0QJO5AtwgAAAAAqdtHAlsgSNyBbhEAAAAAUrePBLZAkLgD3SIAAAAApG4fCWyBIHEHukUAAAAASN0+EtgCQeIOdIsAAAAAkLp9JLAFgsQd6BYBAAAAIHX7SGALBIk70C0CAAAAQOr2kcAWCBJ3oFsEAAAAgNTtI4EtECTuQLcIAAAAAKnbRwJbIEjcgW4RAAAAAFK3jwS2QJC4A90iAAAAAKRuHwlsgSBxB7pFAAAAAEjdPhLYAkHiDnSLAAAAAJC6fSSwBYLEHegWAQAAACB1+0hgCwSJO9AtAgAAAEDq9pHAFggSd6BbBAAAAIDU7SOBLRAk7kC3CDzMHn/88UO+nn/++TYdAAAAvqHbRwJbIEjcgW4R2NLTTz99+PKXv3x47Wtf256/SQoQzw0SX/e61x1eeumlY9DZnQcAAHiYdPtIYAsEiTvQLQLXogCqBoQEia85XvsLL7xwePOb39yeBwAA2JtuHwlsgSBxB7pF4FIKBPXKYFDBWPf6+te/fl+wpM865pfK0nGVo/K++tWvHo/r86c+9anps847zbPPPnsM4PwaBXKjINEBoF95HbV9+cqyahm1HrdVL18jAADAXnX7SGALBIk70C0C53Ig2AVeNvdLogMwB3X5a52DKpXtzypLaV588cVjXh9XHh1XGcpbA1FTWbWtboMDN7ehBnLZtjye55wn21vT+txSvwEAANymbh8JbIEgcQe6ReAcCpbWBDkKlBQUKTiq57qgTel1LAMtf1adGax1wVh3zLr6Ol26uSCxu0alq8cq1dGVBwAAcNu6fSSwBYLEHegWgXMpyFn6RawLoMTBXPfS8Te84Q3H9zVBYg20uiBv7rionnzVdHNBotJ2L6VXvkyb1z1qCwAAwG3r9pHAFggSd6BbBC7lAEvBTw0GR0GiKEjS+XpcHEytCRKzjO6Yqb4amNW/bjpKt/RLYk1fuV16dWUAAADsSbePBLZAkLgD3SJwLQp+FAgpIMpj3S9qPpf//aADKTnll8Qsv5aZuuCvts/l13Suqws+HWiqLB9TfpervPzrpgAA4C7p9pHAFggSd6BbBLamgMmvGsA5wPLLQVgGZUtB4ty/bqrPo5fTZftUzpNPPnn8XAPC2tYMJN0uv2qQCQAAcJd0+0hgCwSJO9AtAnfV3K97AAAAOF+3jwS2QJC4A90icFcRJAIAAGyj20cCWyBI3IFuEbirCBIBAAC20e0jgS0QJO5AtwgAAAAAqdtHAlsgSNyBbhEAAAAAUrePBLZAkLgD3SIAAAAApG4fCWyBIHEHukUAAAAASN0+EtgCQeIOdIsAAAAAkLp9JLAFgsQd6BYBAAAAIHX7SGALBIk70C0CAAAAQOr2kcAWCBJ3oFsEAAAAgNTtI4EtECTuQLcIAAAAAKnbRwJbIEjcgW4RAAAAAFK3jwS2QJC4A90iAAAAAKRuHwlsgSBxB7pFYM9e+9rXHr785S8fnn766fY8zveWf/M/P+rOVf/SN/2Lh3f/mf/m8M///BuPnv1z33v4lj/2b7RpZ33bnzm85j1/5/Cav/rt9+izjnVpH3Z/6k8cXvOu7z+85vX/2f390qUFAOCGdftIYAsEiTvQLQKYpwBVgaoC1u78XXVKkJgUHP7qt3zXeUGiAyMFQwqM3v637x3r0j7s/pU/dnjNj3/XvSBRfaC+eFQDZgDA7nT7SGALBIk70C0Ce/C6173u8OKLLx7e/OY3t+dvE0Hi/S4KEhUY/ejfvBcMPepBovyd//ZewNwEiY8//vjh+eefvz89AAA3pNtHAlsgSNyBbhG4TQoKv/71rx9lgKjALF/1r5sqrYLKJ5988tUUh/sCOf811Wefffbw0ksvvZricNx4uwx91jkFqD6mTbk35nrvXrWtcxSEPf3N33X4k//Cvzwd81/dXBOgOe0//rOvP/41T33+23/q358+63ym818HrXXK3/zXv2M6r7Tv+Lf+ywfaoO9zZUgXJLq/u9d9/ZVBogIjBUk6pnP6rl8Zf/qVYOkD/8O9c+LPr9Z15OOiPBlo+hc6n5f611oVmOV5yTrcFp9TeW6n6RfAzGuZZq6dPq+2qGx9Luc1R/Wq8xQAgK11+0hgCwSJO9AtArdh7ebXwUcXJCr4cEBX0/l7lq86M2BZChLtkl8SFWQp2PqP/9VvBCgKrv7Rn31dG4BVDv4UvPmzgj3lVRkqK9M4nz5nkKc8+d8Rqj0KBGselaPynCe/WxckXoUDM//1S33u/lqqgqkM2pQ+v+u8uFwd9691+q7yfvaVsjNo/HN/+t53pdW7gkqVq3PZLqfX5wz6HHRmvUvtPIHvl1P+gAIAgEt0+0hgCwSJO9AtAjdNQZmCrjW/jMwFiQrwcsOsNKOgsTt2E0Gi1GBLwVgGZz7mX/AymHMAqDL8WQFeBp9d0Jbnswyfl2zHqAwHoj42SnsVGRjqs//6ZQZ1+TnzOa0CMAViGaxVKv/UfzAnA0/XkUFjrXepnT52Is33F1544ey5CADAWt0+EtgCQeIOdIvAbbjGL4n666aZtwsSVY/PSwaBNxUkZlB1aoC1JkgUffavhjVfps2yM0jUOQepVc3XXYP7u3ut/vVrTZDoX+w6OpfldOdMAV6e737hq2kcAGY7M30GkmvaeQJ+SQQA3LRuHwlsgSBxB7pF4DZpw6uN72jze2mQmPnqsZsKEsUBWf1VcUkGe/6soC0Dvy5oy/NZRpadQaLyrv0rsF19V7EmSBQd1/muDPkr33p/wKc8+b+XUF799VKfFwV3DhSdPn8pzABw7S+JS+1cwcHhpfMPAIBTdftIYAsEiTvQLQJ7oECt+9dNLw0SMwjUhjuDUb3ru47n9xokdsHkqRRQ6a+Rdr/MzVkTJPq4Az7RZ5130Kf8c/9NYleG09T23mqQWIMx8a92evfn/GUwy3X++oueAj7n0XGld4Dn/Fmn0mca11sDyVE7fWyG5l2diwAA3JRuHwlsgSBxB7pFYI8U8HUvB3lrg8S5f91U9N0vpdd/79VtzHXMr9GvnnMchIk+d2k6zjcXJGY6/xVRnau/CqoMn1faU/5101p+0nGdz3LOksGcPndBotMq+FLAJRmsSQaCVgMzB2yWQaXU8v+r/+Te5/z1UJ+dRunN57tysp0AAOxYt48EtkCQuAPdIvAwGv0CCVwsg1kfc2CaQSQAAHdYt48EtkCQuAPdIvAwIkjEpvQLYf4yqIDx1H8xFQCAHev2kcAWCBJ3oFsEHkYEidhc/lVSAkQAwEOm20cCWyBI3IFuEQAAAABSt48EtkCQuAPdIgAAAACkbh8JbIEgcQe6RQAAAABI3T4S2AJB4g50iwAAAACQun0ksAWCxB3oFgEAAAAgdftIYAsEiTvQLQIAAABA6vaRwBYIEnegWwQAAACA1O0jgS0QJO5AtwgAAAAAqdtHAlsgSNyBbhEAAAAAUrePBLZAkLgD3SIAAAAApG4fCWyBIHEHukUAAAAASN0+EtgCQeIOdIvATXj++ecPX/7ylw+vfe1r2/O34fHHHz/kS23s0gEAADxqun0ksAWCxB3oFoGtvfnNbz689NJLx/c8/vTTT+8mcFSAeG6Q+LrXve54fQo6u/MAAAB3TbePBLZAkLgD3SJwKQV5CvZGQdIoACNIvNd3L7zwwgMBNAAAwG3q9pHAFggSd6BbBM7l4EivUYDUBVAKxrrX17/+9fuCJX3WMb8UVOq4g9KvfvWrx+P6/KlPfWr6rPNO8+yzz05t1OvUQDavUa8Mamv78pVl1TJqPW6rXr5GAACA29TtI4EtECTuQLcInMrBUQ3qOnO/Fs6dcx0O6jLYdFClYMufVZbSvPjii8e8Pq48Oq4ylHfU5i5IdBscuLkNNZDLtuXxPOc82d6a1uf0qm0BAAC4Sd0+EtgCQeIOdIvAKRTIrP3rkXPBkyhQUlCkMuu5LmhTeh3LQMufVUfWl2mcvztmXX2dLt3cdXbXqHT1WKU6Rv0GAACwtW4fCWyBIHEHukXgVP6FbemXRAU5Cp4URHXnuwBKHMx1Lx1/wxvecHxfEyTWQGsUDI6Oi+rJV003FyQqbffq+iWve9QWAACAm9DtI4EtECTuQLcInMvBkV41QHLA0/1qZ6MgURQkjfJm2RkMdkFiljHXJtVXA7P6101H6eaCROWt6Su3q+tHAACA29DtI4EtECTuQLcIXCoDNR/T5+7XsjSXRufyl0rXIaf8kpjl1zJTF/zV9rn8ms51dcGnA02V5WPK73KVl3/dFAAA7E23jwS2QJC4A90isIUu6OoojV81gHOA5ZeDsAzKloLEuX/dVJ9HL6fL9qmcJ5988vi5BoS1rXntbpdfa/oFAADgNnX7SGALBIk70C0C16YAa/SL3U2Z+3UPAAAA87p9JLAFgsQd6BaBhxFBIgAAwPm6fSSwBYLEHegWgYcRQSIAAMD5un0ksAWCxB3oFgEAAAAgdftIYAsEiTvQLQIAAABA6vaRwBYIEnegWwQAAACA1O0jgS0QJO5AtwgAAAAAqdtHAlsgSNyBbhEAAAAAUrePBLZAkLgD3SIAAAAApG4fCWyBIHEHukUAAAAASN0+EtgCQeIOdIsAAAAAkLp9JLAFgsQd6BYBAAAAIHX7SGALBIk70C0CAAAAQOr2kcAWCBJ3oFsEAAAAgNTtI4EtECTuQLcIAAAAAKnbRwJbIEjcgW4RAAAAAFK3jwS2QJC4A9/0Td/ULgQAAACAaL/Y7SOBLRAk7sAf/+N/ol0MAAAAANF+sdtHAlsgSNyBP/tvf1u7GAAAAACi/WK3jwS2QJC4E/yaCAAAgA6/IuKmESTuxH/wH/51AkUAAADcR/tD7RO7/SOwFYLEndFfJdBiwD9mAwAA8GjSPlD7Qf6KKW4LQSIAAAAAYEKQCAAAAACYECQCAAAAACYEiQAAAACACUEiAAAAAGBCkAgAAAAAmBAkAgAAAAAmBIkAAAAAgAlBIgAAAABgQpAIAAAAAJgQJAIAAAAAJgSJAAAAAIAJQSIAAAAAYEKQCAAAAACYECQCAAAAACYEiQAAAACACUEiAAAAAGBCkAgAAAAAmBAkAgAAAAAmBIkAAAAAgAlBIgAAAABgQpAIAAAAAJgQJAIAAAAAJgSJAAAAAIAJQSIAAAAAYEKQCAAAAACYECQCAAAAACYEiQAAAACACUEiAAAAAGBCkAgAAAAAmBAkAgAAAAAmBIkAAAAAgAlBIgAAAABgQpAIAAAAAJgQJAIAAAAAJgSJAAAAAIAJQSIAAAAAYEKQCAAAAACYECQCAAAAACYEiQAAAACACUEiAAAAAGBCkAgAAAAAmBAkAgAAAAAmBIk78qa3vP3wzK9/7vDYd7+xPX+OD3zwycNHn/pkew4AAAAAKoLEHalBor4/+9zvHJ57/gutzzz721Navf/aM7/xQIDZBYldWqXr6pijPFkuAAAAgLuPIHFHuiBx9Mtid05BWwaOPpZBos4pzcc/8em23Er5FVB+5+sfa88DAAAAeLgQJO7A6Fe8Jz70sZOCRKmBYgaJ/mVSxzLPHIJEAAAA4NFCkLgj7/iZd98X4J36S6IpKHQgmEFiHl/rlCBRaZSWoBIAAAC4uwgSd0QBWQ0S1/43iSMZJJ6DIBEAAAB4tBAk7oSCPQV9Cgr1C6ECxFN+SVQg2AWSc/yr4jl57ZIAFAAAAMD+ECTuhP+qqei/RVSw+J73PnHWXzddY+1fPT3ll0QAAAAAdx9B4g4oANO/NppBoYJGHSNIBAAAAHCTCBJ3QIGYgrYa+On72v8mcSlthyARAAAAQEWQuAMf/sjTxyCvCxL5JREAAADATSJI3JG7HiQqjdISVAIAAAB3F0Hijuw1SFTa7lxFkAgAAADcfQSJO9IFiWv+m8SldCNdkOhAL9PpH9Gp6QAAAAA8nAgSd6QLEm/7l0QAAAAAjxaCRAAAAADAhCARAAAAADAhSAQAAAAATAgSAQAAAAATgkQAAAAAwIQgEQAAAAAwIUgEAAAAAEwIEgEAAAAAE4JEAAAAAMCEIBEAAAAAMCFIBAAAAABMCBIBAAAAABOCRAAAAADAhCARAAAAADAhSAQAAAAATAgSAQAAAAATgkQAAAAAwIQgEQAAAAAwIUgEAAAAAEwIEgEAAAAAE4JEAAAAAMCEIBEAAAAAMCFIBAAAAABMCBIBAAAAABOCRAAAAADAhCARAAAAADAhSNyZv/RXXnv41n/nOw7f/hf+o8N3/KW/CgAAgEfMX/yO//TwLd/6Fw9/+ZV9YbdfBLZGkLgTr/1rf+Pwzd/yF9qFAgAAAI+mb/6Wbz/uE7v9I7AVgsSdIEAEAABAR78qdvtHYCsEiTugv2LaLQgAAACA8FdPcZMIEndA/w1itxgAAAAAwq+JuEkEiTvAP1IDAACAOf/ut/177T4S2AJB4g50CwEAAACQun0ksAWCxB3oFgEAAAAgdftIYAsEiTvQLQIAAAB797rX/63DY4/90H10rEuLy3X7SGALBIk70C0CAAAAe6Zg8POf/1KLQHEb3T4S2AJB4g50iwAAAMAeff8bfuTwzDOfmwLCet7HlUZp63mcr9tHAlsgSNyBbhE4zfsOT33+M4e3t+fO9/Zf+dLhqZ/uzwEAgEeTgr9f/uVfOfyPf/89x2Dwve/9pfvomM4pjdJ2Zcz5nl/8/BRoyp3Zi/z0Zw6f/82nDt/TnbuSbh8JbIEgcQe6ReA0M0Hi9z11+NyZASRBIgAAqBS4+RfCd7zz8QeCRB3TOaVR2sy7RHuP+wMt7XG+dPjcL771vnS7RJCIhwhB4g50i8BpCBIBAMDNyCBxzslB4sye5Xu+jyBRun0ksAWCxB3oFoHT3AsSn9Kfvr2yGMu94O7en77dd0wL8G++kvY3ffyVxfi4KL/6PRY3gkQAAFBpv7BFkHj8a6a/8r723ESBmPcsn//84YPf9+rx4/7mqcMHB3uh3M8c63kgmHvr4YPT3uj+Xy7v/+uvGcTmPuuVtvxiBonj8i7R7SOBLRAk7kC3CJymLID5J1n1T+WO37+xqB7/Wsd0/t6C5nIIEgEAQKWg51aCxLKHuRcwvrqHefUPvKd9S6ZVuqlc7ZmijFcd90P3pXm1rKzjFRlg3p/n1aAwzn1jD3X//uoS3T4S2AJB4g50i8BptJjVQDAXzXIu/vSsLsha1PynXQSJAACguq0g8cHzEXyV/Y18Y08TgeF9AaP1gaP+imvui+5P2+SZ/pBe5+79gpiu8Wtit48EtkCQuAPdInAaLUYEiQAAYHsKeLYIEh/YsxTnB4n38upzv7fpg0Q5P0gcX8clun0ksAWCxB3oFoHTECQCAICbsVmQ+ArtPab/ZOZIe5xXjmmvctzTRGCWfxX0eC72LTXtq+fv/28Kv+FY77QfulfncT90wV83refuDzbP0+0jgS0QJO5AtwicZiZI9KLlxU7nCBIBAMCZtgwS5bg3OQZ099y3FzkGbT5XgsD7/mG+B/cwucd50Df2S5Lp7m9PBpmvBrBHr7SFf7gGDxGCxB3oFgEAAIA9UtCzZZB4lvKH4A9SQFf+eugd1O0jgS0QJO5AtwgAAADskQK/f/APPtCeS0qzhyDRvwRe69e829TtI4EtECTuQLcIAAAA7NGP//g7j0HXGmuCSazX7SOBLRAk7kC3CAAAAOzVX/8v/uvjXyedozRdXpyv20cCWyBI3IFuEQAAAABSt48EtkCQuAPdIgAAAACkbh8JbIEgcQe6RQAAAABI3T4S2AJB4g50iwAAAACQun0ksAWCxB3oFgEAAAAgdftIYAsEiTvQLQIAAABA6vaRwBYIEnegWwQAAACA1O0jgS0QJO5AtwgAAAAAqdtHAlsgSNyB17zmNQAAAMCsbh8JbIEgcQe6RQAAAABI3T4S2AJB4g50iwAAAACQun0ksAWCxB3oFgEAAAAgdftIYAsEiTvQLQIAAABA6vaRwBYIEnegWwQAAACA1O0jgS0QJO5AtwgAAAAAqdtHAlsgSNyBbhEAAAAAUrePBLZAkLgD3SIAAAAApG4fCWyBIHEHukUAAAAASN0+EtgCQeIOdIsAAAAAkLp9JLAFgsQd6BYBAAAAIHX7SGALBIk70C0CAAAAQOr2kcAWCBJ3oFsEAAAAgNTtI4EtECTuQLcIAAAAAKnbRwJbIEjcgW4RAAAAAFK3jwS2QJC4A90iAAAAAKRuHwlsgSBxB7pFAAAAAEjdPhLYAkHiDnSLAAAAAJC6fSSwBYLEHegWAQAAACB1+0hgCwSJO9AtAgAAAEDq9pHAFggSd6BbBAAAAIDU7SOBLRAk7kC3CAAAAACp20cCWyBI3IFuEQAAAABSt48EtkCQuAPdIvAwe/zxxw/5ev7559t0AAAA+IZuHwlsgSBxB7pFYEtPP/304ctf/vLhta99bXv+JilAPDdIfN3rXnd46aWXjkFndx4AAOBh0u0jgS0QJO5AtwhciwKoGhASJL7meO0vvPDC4c1vfnN7HgAAYG+6fSSwBYLEHegWgUspENQrg0EFY93r61//+n3Bkj7rmF8qS8dVjsr76le/ejyuz5/61KemzzrvNM8+++wxgPNrFMiNgkQHgH7lddT25SvLqmXUetxWvXyNAAAAe9XtI4EtECTuQLcInMuBYBd42dwviQ7AHNTlr3UOqlS2P6sspXnxxRePeX1ceXRcZShvDURNZdW2ug0O3NyGGshl2/J4nnOebG9N63NL/QYAAHCbun0ksAWCxB3oFoFzKFhaE+QoUFJQpOConuuCNqXXsQy0/Fl1ZrDWBWPdMevq63Tp5oLE7hqVrh6rVEdXHgAAwG3r9pHAFggSd6BbBM6lIGfpF7EugBIHc91Lx9/whjcc39cEiTXQ6oK8ueOievJV080FiUrbvZRe+TJtXveoLQAAALet20cCWyBI3IFuEbiUAywFPzUYHAWJoiBJ5+txcTC1JkjMMrpjpvpqYFb/uuko3dIviTV95Xbp1ZUBAACwJ90+EtgCQeIOdIvAtSj4USCkgCiPdb+o+Vz+94MOpOSUXxKz/Fpm6oK/2j6XX9O5ri74dKCpsnxM+V2u8vKvmwIAgLuk20cCWyBI3IFuEdiaAia/agDnAMsvB2EZlC0FiXP/uqk+j15Ol+1TOU8++eTxcw0Ia1szkHS7/KpBJgAAwF3S7SOBLRAk7kC3CNxVc7/uAQAA4HzdPhLYAkHiDnSLwF1FkAgAALCNbh8JbIEgcQe6ReCuIkgEAADYRrePBLZAkLgD3SIAAAAApG4fCWyBIHEHukUAAAAASN0+EtgCQeIOdIsAAAAAkLp9JLAFgsQd6BYBAAAAIHX7SGALBIk70C0CAAAAQOr2kcAWCBJ3oFsEAAAAgNTtI4EtECTuQLcIAAAAAKnbRwJbIEjcgW4RAAAAAFK3jwS2QJC4A90iAAAAAKRuHwlsgSBxB7pFAAAAAEjdPhLYAkHiDnSLAADgEfVXv/3wmr/z3/bnADzSun0ksAWCxB3oFoE9e+1rX3v48pe/fHj66afb83jN4U/+C//y4elv/q7DP//zbzzSZx3r0m7u9f/Z4TXv+v7Da/7Un7i38fzx7zq85l/5Y33ah923/ZnDa97zd+5twkWfdaxLe6H/+F/9M7c77tfg+aK5o3cCl22pn3WvfuB/+AbN0y4tHg1aq3XveT5suGZxv98N3T4S2AJB4g50iwDmKUBVoKqAtTu/J7ceLGiT6SBRAeOj/OD3Jlx9oo3W2//2vWNd2gH/IYlfe52H/9I3/YuHd/+Z/+bwN//172jPr6L5os2iNqqaN/repcPlcm6K+lvvCgz2eM/m3OjOL3Hws/c5tad2as362VfmyFZBIvf7ndDtI4EtECTuQLcI7MHrXve6w4svvnh485vf3J6/TQSJJ9CG4kf/5r0Hvx76j3KQqD5QX6hPzggSu1/R9zoXrxIkOljRZzaN28oNevb7f/Wf3Puu4zXPbcr2dueXKB9B4mm2DhJn7nftB7TO6X1Kj1vR7SOBLRAk7kC3CNwmBYVf//rXjzJA1GY4X7lRdj4FlU8++eSrKe7/lcUb7Gefffbw0ksvvZricHj88cenMvRZ5/JB9Pzzzx/5c/eqbV3DfyX02T/3vYdv+WP/xnRcm+p6TN7yb/7nx023Nt/6ruDPf51URpvxUZCo9FneaFOveru/tqq+Gr3cX0cZJGoTkJsdfdamQ3+FSbQh9efciOizjvmvPNUNk38F8Xnxr5c6741Wnq91qG15fq4Ot7VumJbaqXY4SFR52gjpWKaZoTl/X9++Ssc0Hp5T3XiZ5oPG+W//qX9/Sqcx9nmXofOahzqf87GbJzr3q9/yXcf32obk+Vbv5Xzdd1/nplF9qe8+t3buKJ3Ho56TOu7iOmVpbknWIdnOWobbWufOUjvn1PqTznV5KrXZ9Wa/V6N2+hprPp1XuuwTpXEZtS+VTvfq//n/8I00WWbmTWv7rBtPy6CzpstzdT1Rn7hdXZ/4+Cnjvradc9z3dQ7kWOv73LUmpa/tF5Wn/CrHx9QfOW4+5jpqesl5pzbnnHmFnst+dudzGzer20cCWyBI3IFuEbgNDjpqkFZ1v6aIg0tvoms6f8/yVWcGePo+FySayswA9BzeTNeAsNuEK+0/+rOvm9LpXObTxr8LLH1O9dRgYU2QWAPTmudi2gh4s6DP3pxoo+CNjTc63jB4Q+Pv3rDlRkhp/sq3fmMTUjcsyqP8Pq+8uWnSuW4T5TpcZ6ZZaueFNNdeeOGF41x1kKW5qmOf+tSnHrgfRuOu4wrYPM6ehzqe3+u4uywdq/NE885Boo916a5KY7E0dzKNvmss8rvGrG56/9yfvvddZa2dW1lmrVPv+u4yurmz1M6bomvxJj7bZ0vt7NqtPHnv6bPHyufzu8pQ/e4vlaUyddxldPlO1Y2t6bp1/bUNNa3LUHtr+2oepz113OfauYby1X7Ke2TttTrtuUHi0rifIIPFuu5he90+EtgCQeIOdIvATdOir6BrLji0uSBRD478RU9pRkFjd+wmg8Q5dYO/FJzVjX4aBQu1TL3npr7b+KuMDFYvlhsFffamIjcY+Tnz+djcpka8yaplzHGZ3vh1myAdyw3fUjsvpHmtgPCnf/qnj7+Ya45qHormbZ2jo3HvjusPAzzu3VzKY3WeyK0FiXNzp46heC7kuHbBkC3NrU7dSC/NnTXtvGmq18GiA6A17fR391fNU/vGafTXruf6S+NZxyDHP4+vVdu6xPMqj82V0V2Hjp067qe2s1ozBlV3rTLK211rltHlU9oc9zPkH5x157GNbh8JbIEgcQe6ReA2XOOXRG+efUxpapCoenxeMgjcS5CYm/Ju0y7ehOdf56tpRMeUP4MCWQoSlS/LTjrn8epetb+GcqOnz95UeIPhDVJuWM35lF4bDW2+fK5u/L1Ryvy5EZOuLqfJdjp9bnzWtvMCDhJ/8Rd/cepfvTtQrPfDaNx1PMddapBY/yAg50adJ3JqkKi2jl71OoaW5k6dE0nps5w8143z3NySOr8yzdLcqeWnbOeceg1pbRlJ8z77U+3/y9+yvj9zXPLaVW6XX3yv6b32l9pQr6OWfSrlU/5abtK5bKP7xObK6Np3zrivaecStTvHs16HLF2rZPvzuMZsLkhcM+4n0POZXxJvT7ePBLZAkLgD3SJwm7QZ7v6bRLs0SMx89dhegkTR5lqb7L/+r/2vH9js61z+9dJRICmjYMHlazOv73VTr7IVLNR8V5UbKX32piI3GHpf2iDVjYa+50Zdfz2wbtZ03vlUfqb3pt/n9V43QbWONe28QA0SPXf1Xe/1Dz8uCRKVL+dSHqvzRE4NEq9iae5orJZ+qVAa/fXSPKa8ubn3HLBu3HNu6HhupJfmzpp23gS1ydeqd/en+/lP/6/WtVPXo+v93/1vHgxulFdlZF9Uqjv7X9SWem/l+OfxtZSvts/UTo1PnlMb3Cc2V4au4xrjPlfHWqpDc9Jt0nueW3Ot4nJqm7trzTKUfmncV3BweM6/AYDr6faRwBYIEnegWwT2QA+E7l83vTRIzCBQG+t84Ohd373h9vcaJHbB5Km88R79t4Q+r1/u6kZbm3rxd23e/QtfpvM5ldMFC/W/a8y6vMlfW89ZtDHxRk+fvanIDUZurPTdm6bMpz+RdnrJzYzy67zT67w2K7lZyvrEeXze6b2RchuyXUvt1LELaK5p/n7f933f8V0vzUu/1/Rz474mSMw0OpdlKX2e1/duHut4zp+rWjN39J79r7HxhtjjU3/NqOXOzS2XoXSZP+fBmrkz105931rtC1GbatvXtlPfVVYNHFxP9qfqyjHQe9YhSl/rULpafqrX1KVRudkWq2W7H2pa19GNU+07pz1n3EftNNeVZVfKr76ofbv2WkVld0Gi2+1+9neX4WvPMpV2bmwKr3+XPHNxHd0+EtgCQeIOdIvAHing614O8tYGiXP/uqnou19Kr19vuk24N+h6nfMnm96Mj4JE0QY7N+fmvArYxJtxl1XPp9y0a/Pv4+/4t/7L9pcfpXeari0X0WbImxZ99iZC77mh8KZDmwqpmyhvbHy+bpa8SfF5yc1Jze/6s5xMo+Pn/OumF9Kcq/M1rRn3tUHi6F83FeVVGS5baesviVmW09V6L7J27uicx6POC/Fm1eomemlu1THXv8qpMpRHeWsZo7mz1M6bUK9F6iZ+TTtdjtLWc6LxcRnZT6L66hgofVdWllPbkvf8KBCpY5v11jZqzPRZ7ciyU23DtcZ9rp15fpRfPM+7vjjnWiXb4fJ9XP+Ks8qdqyfHHXdGt48EtkCQuAPdIvAwGv0CCSzSZqluzLQpuuGNjv4gQn/AkX8gofl8zTntwO5qvxY/6nYyd06i9tUNPk5zF8cdWKHbRwJbIEjcgW4ReBgRJOJs+tN5/Sm9Nn767j9dv4WNtAJE/XLtV/cr9yUIEq9sR3MHN4hxx0Oq20cCWyBI3IFuEXgYESTiIt70+a9LPaSbPYLEDTwicwcF446HULePBLZAkLgD3SIAAAAApG4fCWyBIHEHukUAAAAASN0+EtgCQeIOdIsAAAAAkLp9JLAFgsQd6BYBAAAAIHX7SGALBIk70C0CAAAAQOr2kcAWCBJ3oFsEAAAAgNTtI4EtECTuQLcIAAAAAKnbRwJbIEjcgW4RAAAAAFK3jwS2QJC4A90iAAAAAKRuHwlsgSBxB7pFAAAAAEjdPhLYAkHiDnSLAAAAAJC6fSSwBYLEHegWgZvw/PPPH7785S8fXvva17bnb8Pjjz9+yJfa2KUDAAB41HT7SGALBIk70C0CW3vzm998eOmll47vefzpp5/eTeCoAPHcIPF1r3vd8foUdHbnAQAA7ppuHwlsgSBxB7pF4FIK8hTsjYKkUQBGkHiv71544YUHAmgAAIDb1O0jgS0QJO5Atwicy8GRXqMAqQugFIx1r69//ev3BUv6rGN+KajUcQelX/3qV4/H9flTn/rU9FnnnebZZ5+d2qjXqYFsXqNeGdTW9uUry6pl1HrcVr18jQAAALep20cCWyBI3IFuETiVg6Ma1HXmfi2cO+c6HNRlsOmgSsGWP6sspXnxxRePeX1ceXRcZSjvqM1dkOg2OHBzG2ogl23L43nOebK9Na3P6VXbAgAAcJO6fSSwBYLEHegWgVMokFn71yPngidRoKSgSGXWc13QpvQ6loGWP6uOrC/TOH93zLr6Ol26uevsrlHp6rFKdYz6DQAAYGvdPhLYAkHiDnSLwKn8C9vSL4kKchQ8KYjqzncBlDiY6146/oY3vOH4viZIrIHWKBgcHRfVk6+abi5IVNru1fVLXveoLQAAADeh20cCWyBI3IFuETiXgyO9aoDkgKf71c5GQaIoSBrlzbIzGOyCxCxjrk2qrwZm9a+bjtLNBYnKW9NXblfXjwAAALeh20cCWyBI3IFuEbhUBmo+ps/dr2VpLo3O5S+VrkNO+SUxy69lpi74q+1z+TWd6+qCTweaKsvHlN/lKi//uikAANibbh8JbIEgcQe6RWALXdDVURq/agDnAMsvB2EZlC0FiXP/uqk+j15Ol+1TOU8++eTxcw0Ia1vz2t0uv9b0CwAAwG3q9pHAFggSd6BbBK5NAdboF7ubMvfrHgAAAOZ1+0hgCwSJO9AtAg8jgkQAAIDzdftIYAsEiTvQLQIPI4JEAACA83X7SGALBIk70C0CAAAAQOr2kcAWCBJ3oFsEAAAAgNTtI4EtECTuQLcIAAAAAKnbRwJbIEjcgW4RAAAAAFK3jwS2QJC4A90iAAAAAKRuHwlsgSBxB7pFAAAAAEjdPhLYAkHiDnSLAAAAAJC6fSSwBYLEHegWAQAAACB1+0hgCwSJO9AtAgAAAEDq9pHAFggSd6BbBAAAAIDU7SOBLRAk7kC3CAAAAACp20cCWyBI3IFuEQAAAABSt48EtkCQuAPdIgAAAACkbh8JbIEgcQe+6Zu+qV0IAAAAANF+sdtHAlsgSNyBP/7H/0S7GAAAAACi/WK3jwS2QJC4A3/23/62djEAAAAARPvFbh8JbIEgcSf4NREAAAAdfkXETSNI3In/4D/86wSKAAAAuI/2h9ondvtHYCsEiTujv0qgxYB/zAYAAODRpH2g9oP8FVPcFoJEAAAAAMCEIBEAAAAAMCFIBAAAAABMCBIBAAAAABOCRAAAAADAhCARAAAAADAhSAQAAAAATAgSAQAAAAATgkQAAAAAwIQgEQAAAAAwIUgEAAAAAEwIEgEAAAAAE4JEAAAAAMCEIBEAAAAAMCFIBAAAAABMCBIBAAAAABOCRAAAAADAhCARAAAAADAhSAQAAAAATAgSAQAAAAATgkQAAAAAwIQgEQAAAAAwIUgEAAAAAEwIEgEAAAAAE4JEAAAAAMCEIBEAAAAAMCFIBAAAAABMCBIBAAAAABOCRAAAAADAhCARAAAAADAhSAQAAAAATAgSAQAAAAATgkQAAAAAwIQgEQAAAAAwIUgEAAAAAEwIEgEAAAAAE4JEAAAAAMCEIBEAAAAAMCFIBAAAAABMCBIBAAAAABOCRAAAAADAhCARAAAAADAhSNyJD3/k6cOb3vL29tw7fubdh888+9uHx777je15AMDdp7X+1575jcN3vv6x9jwAADeFIHEnPvDBJw8ffeqT7TltGLRx0AaiO38tClIVjHbBqtrH5gWPGt0Lz/z6527tD2hUr+of/QFSZ67NWmO2XkdwvlOCxEvX67lnjuaOyt56zVf9asfa4wCAm0OQuBNLm0FtHkYPdFG+Z5/7ncNzz39hFaWtdY02DTcVpAK3RXO/u0+W+H7xPdKlGakbcLWhboxH60KXNqld9W8f6JjqHK0xWM9BVDeunbreaiy6dHPqeGr8z12v59LkOZW/tO7rukbB6hz3YVe+6p2b3wCA7REk7ogeino4/9zj7283CR0/YPWA7n496B62SpMbT713Aabaog3D6HwXaC75gR/80cOLL/7+4bOf/a32PLAno/tqC9405/1a71XRed17WicyX70/1zjnHsZ2tJ573e3Oy2g9XrtedwFqBqD5zFD6pfmvc0986GP3lbGGr/WtP/Wutr2d+iwDAGyHIHFH9IDVQ/OUB62NHuZrg8SaNzcrKqP+aa/yaFPgMuSjH/vVg1/6nOlFgWF9delu2y+874nDyy+/fAxmFdR2aZa4L774xS+15/fittvpvs7XVnPC16rX2jpG99VWVE8GivVe1b146mZ8Lf8Bjl6XzP1r3D+X8HWoDWpLl2YNr1eXltPxr3VdINTJMb/Gep3pM133vND3Lm2lvNKd63R1rTkHALgZBIl3UPcw1sN/7Z/Giv9U2XlHmw79WtFtEOqmw37iJ995+KOvfe2BDWIXIPq1t0CKIPHm3GSQKKP5qbmv+dzdKyNbBWt5P4qDxO4+tbn2+/7NwGCuLN+r547D3oNEXZ/U4x1fy03dH6PgLXVjd+p6XYMwpVc+lVvnj54VH//Epxfb5TmotnTn01JagkQAuH0EiTugB6IfyH5o6r3bhI4erqNNX/ewVRql9YZhbtOhzUFXxqi+jjfm8q6f/fnjBk6bNG3AvvKV37uVjeSca2xyCRJPpzbotWWQeKo181z3Sm6qT1Xv5VTv1ZFROt233tz7ntbnU+7fu2YpSPR5vc6Z9+rTbhzX0Fp6yXxR/m7sTlmvPVeUR+/6657KW/NUOZe6876uuTTmPlQefV/TJ04LALgZBIk7oYeqHq75IKwPUtEGoHsIjzZ93YbBmwRvKOc2HapHx2tgOqqv401ZDRJH6fzKTZ6DGZ3PwM2BhctzgOdXps9gNevxRtHnu9dow1nV+vOlslWH0qm9+cp2+lr9+qfP/7OpvS6j9pU++9pcx1x/rm3nnNr34j7MuuauNY2CxHrcbc9y6vWM6jjVKfN8RPegdOdM9ZzyNwEk/xBJ73lPW27s856+ynW9Mh45zh4nv+oYeIz+4A9eOvKr3ruj8+K55GOeb56ztQ35ynIk58wl86Xry27d7SiPxrGu6fqsY/k3Pqyr75T12ml/6Id/bJozzuO5Vevt6qx0zf7FMeuusi6ny/bX9O6LuTIBANdHkLgTowehvuthqg2HPnebBtGxUzaZWc4obz60lUYPdudRW/R9btOQauCjV27avNmrr7oJze/e5HmD19Whl8+P6tBLeefOZ71zcuNZX0sbWffH6Dr0WirD50fX4utY0856bZXryA123cQvXWtyWl3/3PFTxz3L6tQN8inqPaD7RRtl3yeSQaLS6r5ae9+MqPzctM9dg+9j3bP+XPOvlfOmzpM61rX/R3NuzZz02Nf55Tnotozmm17dnBPn0Xt3fknXl2uCRKXpxst0XmNVx0j1XbJeq101r/4/vZ6XOYeVVrprTG6T6sl51qVVeTqv9iitjum9tqlyWgDAzSBI3Ak9UPXg7B6EfgDrQTnaeIwe4t1mRWmUVnn0vcvbPehVlo/pfN0gr9FtBLUB9OYvN2r1mIMBf/d5HddmVJtSf9f5eswbSm9KlcYbxNxAuo1rg4xObeucUVofr5vx7jrcZqdd059ySjs7yqeXynF/1/amufqyrLnjOT4/+3P/98Vxz7JO4Tk+ui873gDX+0b0WfeL/0qgz5+j3rP1nrZsT97To/VixHNOr6W5Mrp/6hyt4+Tzos/K4znrsvzd96vblXPO5WY5czy/lq5rZLRWjtbqjsbDa3zONZVT59611uucM/qstHpX+lODxKxL9Lm22574xx99pby3PRAk1vbbUnkAgG0QJO7E3INQx/ynqacGZms2K2s3HTrvTcXcQ32ON3Da5OVm8vd+7/9z3Kh1L2/enFcbQv+1VW8OcxPbvbQJ7TaUddMp2S7V6eOnUH16jTaePp+vmtZpsm3i68hNsNvsa/PGt3tlPUvtXOJ6lT8/Z5o11yo6ppfSzx3P8fnFf/iPF8c9y1pL94w27Zrr3f2Rm2IfUzrdn3r3MacVf1c5SlfvS6Xxfb5GrgV5b2aZqsPtzHu2u6Y5eX91Y5dyfPL+6Y7n2Hbn67F6v3b3tNIpvfIpv451XLZeta2nyD72sTXrriiNxjLza2zqL4X5XOjG7pz1Os/rs+aT6/PcV/ukq9N0Tumzjfo896xyfc6j97zeTpYPANgeQeJO6OGth3h9EHrjqAe10/gBXvPWh+oSbxq6DYDaUTcVael8pc2gNnbewOmzgwef8+cuv2U6vbxZdLl6jQKDbkPp8lyOdJvVU+W15fFuAztK6+PZNvP115evLfup5k2jutfy9ajeel2nXKv4mpRm7rivTWV3vyReIu+lvBf1WZtab951P+p+8fx3Ph13HqtBoqi8eh+fot6z3nTn/W2+T/Oe7e75NTKwyvuoS6NxyfunO55j6/M5X3KslcfffU94PmVbunmXfF6vc+e9jca9CxJ1zP0/N17dvFBez8drrdfZBp0THVOatb8k+vrr/JauD8x1+5rm2u86nBYAcDMIEneiPgj1cO02DE6nc2semnMPajtn06Ey584nb+xGL230HMB1r9zIZbq6CfSGsXtlHbmhrJvOWodfc3Xps4+bN7z5Upn/80d+5YGy86WyRteR7c6Nrl76rPNO012DX9mfo3a6HvFGvh63bK838zo+1wa9lK+r3y+3czR/XNeov/TSuWzrHN9zuhek3l9zc37unO7B0SZ67T1U1XtW7/qea4WM2jXa9J9CfZv3hedJfTmNxzrniPMszQWP42isR3M2X77H9Z73+yU0R0ZBnfq+HuvmQRqNo44rr8axG7tT1muVo3mezxeVlUGrjyufdHWKylK+elxcZvecquf07rpHshy1R22sxwEA10OQuBN+cOvdD8y5h5/SSXcuKU3drFT5wE2jTYeO6dya+q0GNXrlBnOUptvMeQPoICLVjWbW4aAlN5QOQGo9c+VIbla9ga3qhtb11rJ/9wsvTMGU8ixthJ0/r8N58tja/hy10+fd3/W46ZjO6aWy8tzStdbz+fL41uvQv/aqPDrmYKOWo886lm0Z8fz3fPf89v2nd2+anTbnvja83cZe5u6VuXxLlCc37aOyMjjI47qm0eb+XF1gppfHwmOU4+Y8ORfm/nXTWo/nU52ba+f+JTwXuvW1rrvqZ/V3Tevjnms5jqJzdUxd76Xrddalz0qjd6Wv//iSPud8E12L7wsfq/LeyeMqpwaJS+132vzetQsAcB0EiTugh7cepP7/VY0eliPKXzcMa6mut7/z8QcetPnQ9kM58527wfTm7dobtkfNaEPuwArn83z3fVU316L7Q+fmNsC+V5Y20nLOPZz3oN694a/lOTCp93F3XbepCyL3Sn2afVtpHDTu7mvxeqrzOUdUhv53FM7ntVj0TFA5OdaZxvWds17ru+eMPiuP3pV/KUjU3OnK7Phe0buPKZ/yv+e9T0z9sIba+L3f/yPHd5XX9QUA4DoIEndAD8p8IJ+yYdzbRg83pwaKBN7XoXtRG/M931sP4+b4rgSJpwRIHQdIpwTvSqs0DjKvQe2oQaKeRWqDr8/BcLZL76e2xfeUr9l9kIHjKRx4yrllAADmESQCAAAAACYEiQAAAACACUEiAAAAAGBCkAgAAAAAmBAkAgAAAAAmBIkAAAAAgAlBIgAAAABgQpAIAAAAAJgQJAIAAAAAJgSJAAAAAIAJQSIAAAAAYEKQCAAAAACYECQCAAAAACYEiQAAAACACUEiAAAAAGBCkAgAAAAAmBAkAgAAAAAmBIkAAAAAgAlBIgAAAABgQpAIAAAAAJgQJAIAAAAAJgSJAAAAAIAJQSIAAAAAYEKQCAAAAACYECQCAAAAACYEiQAAAACACUEiAAAAAGBCkAgAAAAAmBAkAgAAAAAmBIkAAAAAgAlBIgAAAABgQpAIAAAAAJgQJAIAgKv4ztc/dvjoU588PPbdb2zPAwDuBoJEHB/qv/bMbxze8TPvbs9/4INPHs8rXXd+xOWuzfumt7z98Jlnf/v4Xs+d24bbomt45tc/x0bpFdowSnfuJqhuzZ/u3E2bmxc69/FPfHo4x3UNS/04d626v+/SPXQbHqY1qJsvmneaf76+ufk4mm+1jEr9k+u+5t1zz39h0bPP/c6xTOcfPY/kpsdC/aA2dm1Sm9X20XnR8a4v11wrltU5qf7UfdzN67VUhsZ0tJ5WGt/R/aK2MMa4iwgSd0ILkR+Wa3nxyofUqbRw6UH1nvc+cfzeLXKi43MPZZ2vZS+p5Y02JWsfpF7U19h6wdZ1jPryUXPbfaG61zzoL7kHvRHo0uRmRfeqNjO632qfeJ6P+mp0f6S8Vn3u2lMpve6HLNtt6dIn30fn9J3Va9L3ekyWrn9uDEYe5jWouxb10dZBoozm8lx9prxLzyO1rY7dNdVxVH0+pzblua4dte88N+uYr51XmFfnpPoz192aVudyTCunUZn+w4sundX6k9qy5VwFtkSQuHOjB/WSmk+f5xZF0QKnhVEP6LVBZ324eXHtFkWl7fKo3q4+lzE6XxfvuQeDbfFQ9nWd4+P/5FPH9sw9iHz9S+N3qrrZWZpndRzWPvhU7lLZW1oz9+co79K1as4pjd5Hn5VOfajNxA/98I8dj9d2Kd1oA6NjS/2o8/o1UvdwPad5OrqOWu/SfbL2PlJ5S/dkcjvURzk35/ianLe2aXTdapuP17ldyx6dr/et6lq63q7vfKyWbznuvs7Recv5os+ZfiTLyfxJ9Y82xMlzPftiNBYd5dd1dvXk2NVz1zDXTvWJ6q/HU9d3XZke95wLOF2dk+rPvA91PO9fndcanGWY76+8d+buaaXLeyjrmDtf5wewRwSJO1AXsLVyg6KFrEszZ+lBl7SgjdKPFsE1lFfXMLeZUJr6EFWeuoFQmq6OTi3vmtTeUzYwHv+5/p17SJ3KD8FsY30wVu7b7LfaLn2v/bxkVN85Thl/WzMPNC5L46k+UBr58Eeevu9d3Ec517t5L2qT8tT61I6l/vIYaFz8a8ycHL+ch6pbbRj1z9J5U1lZx5K5vl66ftWhumqb5vrTx7uxyHyqt5arPKpP75mn6+dOluf+HF275Rj5mK+79nPXXzqfm+nuui3zu33ddcjcGLt9XT5bum7P6zlzbTjVaM6I2pL93+n63n2YeX2szi356Md+9eCXPtfze/TZz/7Wsb16785Xv/C+Jw4vv/zyMY9f3bX+xE++8/BHX/va8fwXv/il6bjvh5wH+v7Ehz5237E6N5RPx3wfmOdqHV99H82vOh9yTFV+958QKE+dH8AeESTuwNoHdVLafNgrXT7Uar66kOX3UR2p5r+m7vr9kP65x99/33VlnrrIK89oIbe5h/I1qG61oZY/139uU9d2l3fNvh/10+i421fnSG3b6Bp1vOYVpe2On0vt7+ZK165T5oHyduUm9YXS6N2f3/pT77rvuNLN3etL5vpL5WozIkon9dpG/ZOcxu0e9c/a/lM7ujnVURqlVZkuPzd6nbyezJ/l+prqdee43vYa5GNdPUnjP2qLxv5Nb3nbMU3tJ88btSufG911q19q/qxzTRkj3b1YxyfHJdOlNWkuoTbVPvC4dtdQ6bz7PKncPK726zpyLiQHRy+++PuHH/jBH23T7MlWQaIpQFR65cvjp85J9Xe9Tz3metdxjUs9rwDUdVidDx5Trxvd2CpPNz+AvSFI3AEvaHrAa+HyQ8mLj9/zYaW0uSjqfD4060PKZXTfVYbyzm1uav6OzruNS7Kt3YKuhVVptPHp6h7l6erqdAv3NaideW221H9ue22XvvvB5IdPLaerU8fyev//7Z1dq2XNVYX9byG/ILfiHwhei94JeiOoeCFREBVBQV6iRiTykoAGEvGDIEHEC++Dt/EPtDxHxmY4nFWr9tmnu3f3Ow487L2qZs3P2mvN6n2629esfs3Gbfk4OWZvpG8aJzauVzEyLhkH2Wn8teDfae6Vy4xpgrWTXke58JwLxvlWcZqDb//Vly/6dT3lEIhj5QdxKM+s3/mTTDqv8nOaP3xhT+HLyneB7/iDTun3XPAeGV0j5zrviVlo/ce+Bylejyc5kRGSVb50PfkhPLeQ+RbE688ez4PbyXtJrhNZR/5whTpO9yKBbyd5eC3pE9f4RAzTXkhWuUtWOflUufeQ6HAA5Oc135pOeST/uccdff60Z1VfraeG0x7Oe1nuB+nj20xeuX+43mlNKc9KD4lPzunDBrnpRrgjb1LYWdk6uand46vfZLkJq8mQjD+kdWPWTX23Jm/0iW7gruutwCceKpPuq/wpRs+ffFUedJ16Mp/o8DxI9732cy7XK16Nr2JkfNKL7DT+WnzP+Pjkl3KpWiEzfUZOYC05Qh+vq/fYmfatM/kK8tfr6rBG+ZzW34vsTfE6V58jfGGP0Pijb9X4o4e8AO9l32PJ2LLe5IX8pE8pJ9Cl8dX9RPOT7tWaVY2EYnNdGpv8dFij3O9k9dkkZ1xL/2pvMC7Z3Rhk3FMeeM8Yc+jxPbPDY8L2ZB+8dtP8o3jtda264tPkO2jNKneJ52man9Cvoea3izpknRzQ9A3ez3723y9r0PXTn/7Xy3v/dU7Z0o/PuR5+eJUO9+FKh3jrQ+IJyPszLFnVkXHdy5j39fqs6fPNXO7VXFPKs9JD4hPBjY4HkR44upHoVeNTE5I3In+ouZzY3aR0k5O9Fejwde7jFe6rbtRXMsSjh8BVfB8a5Uw+kZuMJ/H4gPx5E6286GEjG1k3r33myWUyX9Inf2RnhX8DiR70uc7VnmI89wogO42/FvzPnMLkl2K/ihk8v9N8Qj6Q91wL7O1yvcohumiCVo0Q69Dp67V/VN+JzD9r+NbT8wOKXzU7zR/yvke4xm7GiE0dJNEp/elvIr/QgQ1spU/uv4/jg8ZXufJ1yKBf+Uevx/YIu3jT90nW7xtAbOwV5vBR/1CSr0lyL6AjxwA76FbceQ28X+3Ve9GeOWHy9zXknvFaY0P7V7XQtVjlLnntHuJA5b92qcPa6a+l+uEuf6Q3D3f6kQ3/e4L5o0OivlnMn+mg+OghkTyyB6gH95LdvS8/L49AnScb1NZltB9We6aUZ6SHxM+Q196E/EY2zV3pO30wIucP4KnJyIc0oFtj/nBF33STPuHeHK2QD6sH/kn+yAMPL8nx6vpWdeXa85IxiqtmBB+vZIB55PJBy/rJ7o6T/XLKLvYV/iBf4fmd5kE5mWx4TtHFWNZQrPaJPiMcplZrwddPnysHucw/1zokupzin9bsQD73lHKVOeU9Y6uapG3kXAd6p4NJygmPa8rVtA77GmNesaEr634Ka9GH3snPK/Cdz6I+j/iDHuqIv4xxTXzYmnRkbn1Mvk2+J9K/qsU9oGvKB3l/yyZ/AhsZm2pNThSncqNrodz52MSpXKIDnA5bOoz5ASsPcbxnjDkdElknXbwHxr/3/R+8HAb5kU7Xx5jW+cFUBz30SF6HTtfhY+I1h0Ttferje4LX1b1v2pvUIeu9Ivek7wfQnmAPaUx+MrbaM6U8Iz0kPgHcZKab0Qn6LxSmuRN0w+PGyUPQb2zp49VN7bU32umGjh8uA35zn+YBH/yhu5J7S/QAwG42xOIkf/iIr8Cf/KPLY9F86uFaMRLvyocrFMfOT/RTP38gi1WMjHscAtlp/LWsaj35pVyyxscnPL/TfELukc8ayCZ/V4W/pzLpc1/JL38irnFgbLVWcr6eOuVnz0Fea5GfGivXyauvuQL5aT8qF65LY6pJ+uN+TJzEm6iuU+zTfmL+fdyDFPuV3ArFjm1Hfkj/lAORdc04BGPI7z47niddsw/SpuP65C8+aMz15Phbk7HjG3b1jax8Xfk55Y5/bVj5AMWyy+MKDmUczjhwfev3/vj2XodA8EMdPz4/HRJ51SHxRz/65xf51OkHOWT54VXzPiYb089bHRJF7jd9HqZ9BtPz6wrqxNqsF3X2+mtPpJz2xGq+lGekh8QnhpsYD5F7bmbceFjDTTPnuEmtbo67dZA3whPQOd1UE/w5adCcaX566MqHiXvjWUFusAOrHJ7mT/4in7XSw4U5X8O1coE86zwHjnRMub1ai//4Nq3dgX/p8/sAvyffsJ25Vx5WsTqsvSdm6o987gPtcxpNDnpeWyFftQ94Rc7vA8is/PZYZW/aj4Cc12XKU9rONXmdML+7rzhTTVhPHmiwvQmcYN1ki/GpfujW+JSr1brdPOvxwWPgPTFM4AMyin1nj3FyPeUS//XZ/eIvvvsis6vNVWyg3INkWfe/++G3XsYmX4Bxr1deO4o9czY9q4jHYzqJ4zWscpdxyHfVUfh61pCzlGGe3J5+PhIdyPzbu0lu4uqQ+L6+Sdzx1ofE/DyvZE9gn/nn1aGOPj7tZ+dqvpRnoofEJ4EbFg9FPZRPyJtM6vB5bmTTQ9fn9VCbyBthwjw3Pm7AfgPkOpsmycvedENHHj2rhz++5DxriNvjuNKTuF/3gq3VAx+du/wJ5Ys4Jr/R4zYUs8si47VmnHmtm/KUMq5Dc7nmFNbcs+5eebGqNboy94qJNT4+Me21RDmdUB49LnROMTLmazTmstg62WesR0/640jvpJP3jLnt9HsVh2B+5Wuyqolye1UD/JhkWD+N45vGydXHvAcxh8yVPXT73oDVWtVG86r5DuRB76ULiMNtc72qLWNqxNGzO+TLP/RpTH643LSX+AMX5FZ5m/ScwBr3R2TM8h3fXE655zXrpXn06JvJlf87/NB2ehATV4dE5jWePzoUuv38QQ92eJ1+ZEN+TD8cGtPvFb7fuOY1P88rWYe6sPe9HtScsayxUJ11Pe1nB/vUfjVfyjPRQ+KTkDc1biB+o/Ib0dVNCCSjh//qYQ7Y5kG205c3QsfX73zLmyM6Qevlq/D4HdlgrcakW/83kR7M2FrpSR69ebNuledd/hJkiX+Sz7pKb8bImGQk53oUq8u4DuSVw1V9xFV+0ZX2VzxSg1WtlSMfUx5P7LD2yn/p06+Sah9yTe5okomLXCI/xSkdvoew7ddilVOPFVurRgk8Ll8HqnnayFzkuoS5yf+JqSboZ4+RU+a057Ju8neqJ2OszX3hsaz2+LQO5KvnQjV9zT1I+tK+cDvoy/mpBlkrIT+Z29VOyDfF43PKW+qRDfnm1ytUO8l6LfGVMeY0hl5fn7FOek5g3XSIUB481mkM8GXySXOeS/k5yV6hb9/uOVDBySERuTwoph0/5PF68q+b+q+wvs9D4vR5FtNeFv5ZRCevuz2kWierNYzv7JfyTPSQ+CRww3irQ6IeOtyodDPyG5nrBfTqAew3yBPQC64zH95O2oaMHTz+ySdvGBSvP6hZ7/Ir8F1rJj/uAZv4wT8YMdmacPufK9oj01zySA1Oa+5Mn6Fpv01yDn5zkMFv1vp/pDztT2DOmwXs+q+hIr9qJuRj5pVr2bnK5aou6ZfDGHPKi38OJ/DlSkYoJuUO/ZkzUD7lg2KeYgHiQR/6kdM6UF2nXPk6+eZrPS755P6y3uVXrPx+lCknXHttkVnVGhTXlY+pl9gzP+R3sqPcqhb4NOU28+b2eOVaOjT2mnuJ193H0y+Q7153+eu+gHycdGvO9ZRrfG94Xne1Z2y1Fx3VJGuesPe9brmfec292zqXT4UeEp+EvKnlg4obkf5zVm4y0wNSN6Crmxo3KOSuHvyfCnmTfi3oeCQn1Owq919FyOlpXh+pQX5mduSD/FF2e3AX/2ruZC8pBl/Pe/mR9xTN6z4BbxX/Cnz5KnwmPO/Pgj5L/nyY6q199Dk9E0DxT3M7WJN5Yv+yj3NcubuqPfP+zJ5A5kpP+fBQkz7Xy1eVHhJLKaWUUkoppdzoIbGUUkoppZRSyo0eEksppZRSSiml3OghsZRSSimllFLKjR4SSymllFJKKaXc6CGxlFJKKaWUUsqNHhJLKaWUUkoppdzoIbGUUkoppZRSyo0eEksppZRSSiml3OghsZRSSimllFLKjR4SSymllFJKKaXc6CGxlFJKKaWUUsqNHhLLkp//hW+++/sf/su7P/vzvx7nS/nc+O6XP3hhmiullFJK+arQQ+ITo0Pa7/zuH47zHwIOiP/04397981f/OVx/oRf/bXfftHBK7GcNOGPHlCx8ZN//88xd/jx45/8x3L+U8ZzPc3voMY//Md/3a5lDpnT/UAd3vIPGVRXoIbpK7bYN+wfHz/has+xV5j/4i//9tU27uEZPv+vRb7fe+DexXy1l5i7156DTb/XnXwedjy6vpRSSvmY9JD45ND4TM2w442zoNn5zt98//+NO7uGS7xFo4rvOrgA+mDXZGfDdgXyq9gyP2kbWZ+/B+maanDFIw3tCmLBp1/6lV9/yd9kV2T9T5pa5t7HIRG9Orjv2O1D7VXsXdV02n+5h8D3IPNaN+VhWr9iF4dDHO/787/au8T6vb/7h3EOphyKk70kXFY1JD+r95MOIB59pk5q4bWVfuUEMoZpT13VEX/uuY+VUkopz0IPiU8ATchJg5xk80gT442bN01ONkRT83OKdOzIZgv7NJ+6PmnoVnhT6LE7yJz4OYHvNHlX6++1gexUm0dQXcmF/J6a2Kz/I/ln7aPr8YG9kIcugcxJo40O5PwzkXXJ2J2Uxa7vqbxOTvz0GmkMfz/m539Ca6ec+ryueT/5uMPto5/684cb+Pb7f/Cn/ydPmt/l1n26qkXqm2rLnN+3XD9jyovyOcW442qvlFJKKR+THhKfgJMGKMkGBmhivNHJpkY2rprEk2ZXvLZBEpMPjN3bQE1NniAHq1ivYK0a1R332kBWtXkrvG7A+8n3Vf1Zk3squWevYlt1vsrhTq/HlXPOlNOsC3bQlTHK/h/9yRc3eV7JE/K+Zx3X7fFe4fm4J6diqpX8vffzjy+ZN+ZgsgOZ17y+YiUv33K/IDvlUXqm8d2emfIhm4xlzbnmm1n0IoNNvV/5vAPZnX+llFLKx6aHxCfAGxaaB2/0cl5jvM/mjcbF13ojMzVFzGut89YNDHrQd9JE4SffkKx8W4Fub+rU2GFbjeS0bgdr0KMc7pANXtOPBDnJTrpei8e5y/mq/loz+eyc7A3msQF8awy+pxPtTw5pk80Vik8xZU49J7pOGc8HfvBef+/Q88e6XezIXuVGtlyvfzYZZ95z5fMa4/1bff5X1/ji75nLeY1lnq9weV6n2gr2RO5l1mQdfQzZSZejWiGrdbxqPHMs/VPuSymllM+NHhKfEDU4aop4vWo+gSaG5o0mTtdqfnZNYsL4ib1TpqZyAnvYzWZuwuMEdPuY54wcrGJdwXodFJTDHffa8Nq8BdTXD9cnuUx/WXPV/Po+muaF8qFX2NV/p9drmXMCGWLynOY+V07SD+YZ169Aa53vJ41hYxWHfDhhpQOkRzK8XsUPxOE+c618eH4zL+C54b3vA3R4Xqdaqc68l/+J/3qsywv84ts6dCOveV79Gqb1XMvPKWc+7zEwNvmYedB616Nxrb8X1biUUkp5NnpIfFJoUNS0gTd/ydSkIM8hZ2qKpibROWl6fC26aa4mOdDfL1rZA/mEvDdgE+jJfGSOvEn0JjBJPUA8NKvyifXo8wYyQWYXX4LsVZyneO7kg++flXz6m03xhO+jaR68FsoL8oyt1u30ei1zDjx+z6nGlQNevfa+P/i2Cqhx/n04rWWOg+Sqbld+Qvq0Ah2qH7CGtZMs+fW4APl7P/+KMf/11oyLdZkDrqUv5YH3vrdcHniP7d/4zW+92FYN5AtrZXOVQ/dr8mHyW3hO9H6VT7iqs5j8KKWUUj4Fekh8Img+vHESNBo0KWraVrDW5bJp0pw3RL5esGZl72ptNoNCzZWPCelU/N6crUj/MkfenEmv21r5j9/61Uj3S3M0slPT5zawPfkMzCGD7Cof96LY8Vs+4B9+yp6zyoHWTH47u6aXHDE/HQbkp2rkIK9DzC5/gjrIBvqx6X9nDBTnlAO3l+Podj3KC2Oan3Q+iufK2eXNYa3Lca04XIfyMtlCnvz6nOJHh7/PdVrDHDKeW96vDon+3mvGGt7z6jrRwXvpEujgMwAc6HLPTCgn6FeuRPqMfsnwPmMEjwWmXJRSSimfAj0kPgk0KjQSNBnZVNB0qJnxNUnKZVOjOeC9NzMCu9jPhinnaX5W89Mh0X1JvLHayQmPRWP4kw2g8uj6d7GnXsmmP7Llsm6D+fRPupQ3ZK/iPIXDEfl2H3Z1ki+Zg1XtHOamwxVMNt0nXU9xu94pf076qfgzp7t4pjiUF9ehMe0lxrCT17n3TlFusIM+bLtu6d/lQ6Qc14rF5xSTbDvkhUNwzml9fssosKM11C9j4L3XwuWFbE97lvXaW9P+YIx86g8PJhnseW0FupEFdGgderApn339lEONuf+8z1yUUkopnwI9JD4hNCXewNKYTM1NQsOiBkfXWscrDRCvU4Mj1Gx5o+N4s7aanxrz02bJfV6RcWrM18me/kl9+btr7lKnxlf+MK6YeC+d2Frpkh8ncd6L+6A6UcsVngOtWR2qRO5NIXup032CVU49Z5m/tLnyM3O68hXSBtfkxNcrJh08NK4YchzSh7RzQvqNvszXBLbdlvvCq+KT/14X0DhyGdsqFwK90qdcJr7W5eXbhMeDHN8Spu+MSx+vjE1593lH/vLKtWJ1P/Ad274+9WXdYJUL8BhKKaWUZ6OHxCeAZmFqIk7wRoP33hipiaF5oenJJidRc5TNlSNdU6MI6Jga+Kt14jQXpw1g+sMabzJ1Pa3dzSXISOfUoEqXGtGVv4/gPqiWsudkDlg35fgE1pJbmugpHvdJyDeX93xk/tDvzfdqj2VOuc46CLfBe2LJXKFrtV45dHtTzqV7QnnhdZo/QTqkx/3lGv/IE35dff6RR444MnbVGJuZJ0BevjAvPSknXB7c9kpGPqx0I6v49B4yZ+LKR+Z8n7l+SP+I2w/CGruyU0oppTwjPSQ+MWpET5sMGhY1QGpWvJnNJsevJZdNTsIc/qxk1FjpH6BQM6Zv9LypSn9WYwky6FIDC6yZmtds0hSn+7HCczfNO8hIJzZVh0Q+ruJk7MTehPvwIXGfd7GD9hf1oC7y131Hh9c3r7XHcg96TlN/kjp9X2itapXX2OXApbWCeWKUDxpzO/cgn3z/7sD3zLN0KL/um1/Ld4+Zdbz6XMoJ6fexHS4vH9GrMV4zb8RDXKt8KB7p07V0OvifepDFB9lNH3TNOuR8vWyyL318sjOh2KbcllJKKR+DHhKfFG+I+DtXNA/eRDlqbrLBUOPiTQ+yvg4kp8ZS8xPIS980Jz8mXfjm48hnPOnjRMrQgE2HBsXlNqaxFZK98gc8FuJc5UhMcRIH9X5tk+g+PELWSWOr/bfjxKdd3JrTvtrl1XPK+11z7rKAbZdnzuena49Lfupf5VT+0Hu1FyZYiw50vu/Pv2ylbsWUeZR86pp8W7GSZ4w4VjYVw5RTzSHLel5XdrzeyGTuWJM+SL+uHa+z63M70zpQnZDFZ+5lO/lSSinlQ9BD4pNBIzI1fEDjQMPB3KpZEVMj502OGhONTU2X2xPoRLfLeVPk44lsokP/3UCuWTVisiF8He8n/9GVDZrH7bITkp38SZA50SmQT72PNojygXx4rnZ43livMXyY/EA/MleNrzjJC/6u6oQtX6/YJvvIYU8yvPq8yD0w7QnW+l5PHxnnmlfGeD/5eUXuAXRoLv2XnWldgl/3fP7dd5D/6YOQL9I36UiQUWx5H5G/zKHHcypfpF++M696SL+jMdlMcr3A3jSHfel15LvnSv5Pdh30KR7Wo6uHxFJKKc9AD4lPgDcyV42WQA75qYljLpsw8EYMVk3S+0QNEfZ55XqSuwfyl3lQk5bj3hz7+IRkp8YwQWan0+OGqT6sP7G14sqHFazDp2kvrVB+H/FXoEMNsvbnlB9Hsh6v8jflYbf3sZ2fhdw/XOe31bIz2bsH1suvUz3IIT/VjLkpf7scfEwU/z2xAOv4TH37O1/eYuIPnxhTXKvaTDV/LY/WH/BHMUx5KKWUUj40PSSWUkoppZRSSrnRQ2IppZRSSimllBs9JJZSSimllFJKudFDYimllFJKKaWUGz0kllJKKaWUUkq50UNiKaWUUkoppZQbPSSWUkoppZRSSrnRQ2IppZRSSimllBs9JJZSSimllFJKudFDYimllFJKKaWUGz0kllJKKaWUUkq50UNiKaWUUkoppZQbPSSWUkoppZRSSrnxc1/7+jfelVJKKaWUUkopX/v6N979D2Z+ZYgIu2pZAAAAAElFTkSuQmCC;" parent="1" vertex="1">
                    <mxGeometry y="140" width="905" height="822" as="geometry"/>
                </mxCell>
            </root>
        </mxGraphModel>
    </diagram>
</mxfile>